%FSLAX34Y34*%
%MOMM*%
%LNCOPPER_TOP*%
G71*
G01*
%ADD10C, 0.00*%
%ADD11C, 0.80*%
%ADD12C, 1.80*%
%ADD13C, 1.52*%
%ADD14C, 0.22*%
%LPD*%
G54D10*
X-50000Y1050000D02*
X950000Y1050000D01*
X950000Y350000D01*
X-50000Y350000D01*
X-50000Y1050000D01*
G54D11*
X596900Y990600D02*
X622300Y990600D01*
X660400Y952500D01*
X660400Y914400D01*
X673100Y901700D01*
G54D11*
X596900Y850900D02*
X558800Y850900D01*
X558800Y863600D01*
X622300Y927100D01*
X660400Y927100D01*
G54D11*
X901700Y825500D02*
X901700Y863600D01*
X914400Y876300D01*
X927100Y876300D01*
G54D11*
X571885Y774935D02*
X571885Y775085D01*
X609600Y825500D01*
X901700Y825500D01*
G54D11*
X566178Y978299D02*
X566178Y972578D01*
X520700Y927100D01*
X482600Y927100D01*
X482600Y812800D01*
X546100Y812800D01*
X546100Y724520D01*
X571885Y698735D01*
G54D11*
X602966Y458171D02*
X597871Y458171D01*
X584200Y444500D01*
X584200Y419100D01*
X736600Y419100D01*
X774700Y457200D01*
G54D11*
X457051Y444491D02*
X398509Y444491D01*
X391700Y451300D01*
X311600Y451300D01*
X292100Y431800D01*
G54D11*
X698500Y469900D02*
X749300Y469900D01*
X749300Y508000D01*
X-25400Y1028700D02*
G54D12*
D03*
X-25400Y1028700D02*
G54D12*
D03*
X-25400Y1028700D02*
G54D12*
D03*
X927100Y1028700D02*
G54D12*
D03*
X927100Y368300D02*
G54D12*
D03*
X-25400Y368300D02*
G54D12*
D03*
X-25400Y1028700D02*
G54D12*
D03*
G54D11*
X12700Y914400D02*
X-12700Y889000D01*
X-12700Y863600D01*
G54D11*
X203200Y838200D02*
X203200Y736600D01*
G54D11*
X203200Y736600D02*
X203200Y647700D01*
G54D11*
X76200Y673100D02*
X76200Y469900D01*
G54D11*
X76200Y469900D02*
X254000Y469900D01*
X292100Y431800D01*
G54D11*
X228600Y838200D02*
X228600Y673100D01*
X228600Y647700D01*
G54D11*
X-25400Y596900D02*
X-25400Y673100D01*
X12700Y711200D01*
X177800Y711200D01*
G54D11*
X254000Y711200D02*
X342900Y711200D01*
X355600Y723900D01*
X470051Y723900D01*
X521085Y774935D01*
X12700Y914400D02*
G54D13*
D03*
X-12700Y863600D02*
G54D13*
D03*
X203200Y838200D02*
G54D13*
D03*
X228600Y838200D02*
G54D13*
D03*
X566178Y978299D02*
G54D13*
D03*
X-25400Y965200D02*
G54D13*
D03*
X0Y965200D02*
G54D13*
D03*
X12700Y889000D02*
G54D13*
D03*
X38100Y889000D02*
G54D13*
D03*
X38100Y914400D02*
G54D13*
D03*
X63500Y889000D02*
G54D13*
D03*
X88900Y889000D02*
G54D13*
D03*
X114300Y914400D02*
G54D13*
D03*
X114300Y889000D02*
G54D13*
D03*
X139700Y889000D02*
G54D13*
D03*
X165100Y889000D02*
G54D13*
D03*
X190500Y889000D02*
G54D13*
D03*
X215900Y889000D02*
G54D13*
D03*
X190500Y914400D02*
G54D13*
D03*
X177800Y952500D02*
G54D13*
D03*
X145766Y952171D02*
G54D13*
D03*
X133066Y966171D02*
G54D13*
D03*
X145766Y980171D02*
G54D13*
D03*
X101600Y965200D02*
G54D13*
D03*
X76200Y965200D02*
G54D13*
D03*
X50800Y965200D02*
G54D13*
D03*
X12700Y774700D02*
G54D13*
D03*
X-25400Y749300D02*
G54D13*
D03*
X63500Y774700D02*
G54D13*
D03*
X88900Y774700D02*
G54D13*
D03*
X114300Y774700D02*
G54D13*
D03*
X145766Y775671D02*
G54D13*
D03*
X158466Y789671D02*
G54D13*
D03*
X158466Y761671D02*
G54D13*
D03*
X254000Y863600D02*
G54D13*
D03*
X266700Y889000D02*
G54D13*
D03*
X266700Y914400D02*
G54D13*
D03*
X292100Y927100D02*
G54D13*
D03*
X292100Y952500D02*
G54D13*
D03*
X310866Y903971D02*
G54D13*
D03*
X298166Y889971D02*
G54D13*
D03*
X310866Y875971D02*
G54D13*
D03*
X279400Y863600D02*
G54D13*
D03*
X342900Y863600D02*
G54D13*
D03*
X342900Y889000D02*
G54D13*
D03*
X342900Y914400D02*
G54D13*
D03*
X342900Y939800D02*
G54D13*
D03*
X215900Y990600D02*
G54D13*
D03*
X254000Y990600D02*
G54D13*
D03*
X254000Y965200D02*
G54D13*
D03*
X228600Y952500D02*
G54D13*
D03*
X393700Y990600D02*
G54D13*
D03*
X444500Y965200D02*
G54D13*
D03*
X444500Y990600D02*
G54D13*
D03*
X520700Y977900D02*
G54D13*
D03*
X540778Y978299D02*
G54D13*
D03*
X520700Y952500D02*
G54D13*
D03*
X495300Y977900D02*
G54D13*
D03*
X444500Y914400D02*
G54D13*
D03*
X444500Y939800D02*
G54D13*
D03*
X419100Y939800D02*
G54D13*
D03*
X419100Y914400D02*
G54D13*
D03*
X393700Y939800D02*
G54D13*
D03*
X387066Y916671D02*
G54D13*
D03*
X374366Y902671D02*
G54D13*
D03*
X387066Y888671D02*
G54D13*
D03*
X419100Y889000D02*
G54D13*
D03*
X444500Y876300D02*
G54D13*
D03*
X444500Y850900D02*
G54D13*
D03*
X419100Y863600D02*
G54D13*
D03*
X393700Y863600D02*
G54D13*
D03*
X330200Y762000D02*
G54D13*
D03*
X394085Y774935D02*
G54D13*
D03*
X368300Y749300D02*
G54D13*
D03*
X470285Y774935D02*
G54D13*
D03*
X521085Y774935D02*
G54D13*
D03*
X571885Y774935D02*
G54D13*
D03*
X635000Y774700D02*
G54D13*
D03*
X673100Y774700D02*
G54D13*
D03*
X723900Y774700D02*
G54D13*
D03*
X762000Y774700D02*
G54D13*
D03*
X800100Y774700D02*
G54D13*
D03*
X800100Y800100D02*
G54D13*
D03*
X850900Y800100D02*
G54D13*
D03*
X850900Y774700D02*
G54D13*
D03*
X889000Y774700D02*
G54D13*
D03*
X927100Y774700D02*
G54D13*
D03*
X927100Y749300D02*
G54D13*
D03*
X889000Y749300D02*
G54D13*
D03*
X762000Y749300D02*
G54D13*
D03*
X635000Y749300D02*
G54D13*
D03*
X609600Y698500D02*
G54D13*
D03*
X571885Y698735D02*
G54D13*
D03*
X521085Y698735D02*
G54D13*
D03*
X470285Y698735D02*
G54D13*
D03*
X394085Y698735D02*
G54D13*
D03*
X368300Y698500D02*
G54D13*
D03*
X127000Y673100D02*
G54D13*
D03*
X127000Y622300D02*
G54D13*
D03*
X127000Y596900D02*
G54D13*
D03*
X152400Y596900D02*
G54D13*
D03*
X101600Y596900D02*
G54D13*
D03*
X101600Y571500D02*
G54D13*
D03*
X101600Y546100D02*
G54D13*
D03*
X127000Y546100D02*
G54D13*
D03*
X152400Y546100D02*
G54D13*
D03*
X101600Y520700D02*
G54D13*
D03*
X25400Y596900D02*
G54D13*
D03*
X25400Y571500D02*
G54D13*
D03*
X25400Y546100D02*
G54D13*
D03*
X25400Y520700D02*
G54D13*
D03*
X0Y571500D02*
G54D13*
D03*
X0Y596900D02*
G54D13*
D03*
X-25400Y571500D02*
G54D13*
D03*
X-25400Y596900D02*
G54D13*
D03*
X-25400Y419100D02*
G54D13*
D03*
X-25400Y368300D02*
G54D13*
D03*
X-25400Y1028700D02*
G54D13*
D03*
X927100Y1028700D02*
G54D13*
D03*
X927100Y368300D02*
G54D13*
D03*
X888200Y697700D02*
G54D13*
D03*
X888200Y597700D02*
G54D13*
D03*
X899300Y558800D02*
G54D13*
D03*
X838200Y647700D02*
G54D13*
D03*
X800100Y673100D02*
G54D13*
D03*
X800100Y647700D02*
G54D13*
D03*
X876300Y876300D02*
G54D13*
D03*
X876300Y850900D02*
G54D13*
D03*
X927100Y850900D02*
G54D13*
D03*
X927100Y914400D02*
G54D13*
D03*
X927100Y939800D02*
G54D13*
D03*
X876300Y965200D02*
G54D13*
D03*
X876300Y990600D02*
G54D13*
D03*
X850900Y990600D02*
G54D13*
D03*
X800100Y927100D02*
G54D13*
D03*
X825500Y901700D02*
G54D13*
D03*
X800100Y876300D02*
G54D13*
D03*
X723900Y850900D02*
G54D13*
D03*
X698500Y850900D02*
G54D13*
D03*
X673100Y901700D02*
G54D13*
D03*
X723900Y901700D02*
G54D13*
D03*
X711200Y965200D02*
G54D13*
D03*
X749300Y965200D02*
G54D13*
D03*
X711200Y990600D02*
G54D13*
D03*
X660400Y992500D02*
G54D13*
D03*
X660400Y952500D02*
G54D13*
D03*
X584200Y939800D02*
G54D13*
D03*
X596900Y965200D02*
G54D13*
D03*
X558800Y939800D02*
G54D13*
D03*
X533400Y889000D02*
G54D13*
D03*
X508000Y863600D02*
G54D13*
D03*
X571500Y901700D02*
G54D13*
D03*
X596900Y876300D02*
G54D13*
D03*
X622300Y901700D02*
G54D13*
D03*
X622300Y876300D02*
G54D13*
D03*
X622300Y850900D02*
G54D13*
D03*
X596900Y850900D02*
G54D13*
D03*
X647700Y850900D02*
G54D13*
D03*
X165100Y419100D02*
G54D13*
D03*
X215900Y393700D02*
G54D13*
D03*
X215900Y444500D02*
G54D13*
D03*
X241300Y393700D02*
G54D13*
D03*
X266700Y393700D02*
G54D13*
D03*
X304800Y393700D02*
G54D13*
D03*
X292100Y431800D02*
G54D13*
D03*
X292100Y471800D02*
G54D13*
D03*
X381000Y471800D02*
G54D13*
D03*
X381000Y431800D02*
G54D13*
D03*
X344800Y393700D02*
G54D13*
D03*
X388726Y395177D02*
G54D13*
D03*
X414126Y395177D02*
G54D13*
D03*
X431800Y393700D02*
G54D13*
D03*
X457051Y393690D02*
G54D13*
D03*
X533251Y393690D02*
G54D13*
D03*
X569600Y393700D02*
G54D13*
D03*
X609600Y393700D02*
G54D13*
D03*
X615666Y444171D02*
G54D13*
D03*
X615666Y472171D02*
G54D13*
D03*
X602966Y458171D02*
G54D13*
D03*
X533251Y419090D02*
G54D13*
D03*
X533251Y444491D02*
G54D13*
D03*
X533251Y469890D02*
G54D13*
D03*
X457051Y469890D02*
G54D13*
D03*
X457051Y444491D02*
G54D13*
D03*
X457051Y419090D02*
G54D13*
D03*
X431800Y469900D02*
G54D13*
D03*
X481750Y534950D02*
G54D13*
D03*
X418250Y534950D02*
G54D13*
D03*
X457200Y622300D02*
G54D13*
D03*
X457200Y647700D02*
G54D13*
D03*
X393700Y647700D02*
G54D13*
D03*
X393700Y622300D02*
G54D13*
D03*
X418250Y583350D02*
G54D13*
D03*
X354750Y583350D02*
G54D13*
D03*
X330200Y622300D02*
G54D13*
D03*
X330200Y647700D02*
G54D13*
D03*
X254000Y596900D02*
G54D13*
D03*
X291250Y583350D02*
G54D13*
D03*
X291250Y534950D02*
G54D13*
D03*
X254000Y546100D02*
G54D13*
D03*
X209266Y571171D02*
G54D13*
D03*
X196566Y585171D02*
G54D13*
D03*
X209266Y599171D02*
G54D13*
D03*
X520700Y533400D02*
G54D13*
D03*
X520700Y571500D02*
G54D13*
D03*
X481750Y583350D02*
G54D13*
D03*
X520700Y596900D02*
G54D13*
D03*
X584200Y649600D02*
G54D13*
D03*
X584200Y609600D02*
G54D13*
D03*
X584200Y558800D02*
G54D13*
D03*
X584200Y533400D02*
G54D13*
D03*
X546100Y533400D02*
G54D13*
D03*
X647700Y609600D02*
G54D13*
D03*
X647700Y584200D02*
G54D13*
D03*
X647700Y558800D02*
G54D13*
D03*
X647700Y533400D02*
G54D13*
D03*
X723900Y533400D02*
G54D13*
D03*
X723900Y558800D02*
G54D13*
D03*
X723900Y584200D02*
G54D13*
D03*
X723900Y609600D02*
G54D13*
D03*
X749300Y609600D02*
G54D13*
D03*
X749300Y635000D02*
G54D13*
D03*
X749300Y685800D02*
G54D13*
D03*
X774700Y609600D02*
G54D13*
D03*
X774700Y584200D02*
G54D13*
D03*
X774700Y558800D02*
G54D13*
D03*
X749300Y584200D02*
G54D13*
D03*
X749300Y558800D02*
G54D13*
D03*
X800100Y558800D02*
G54D13*
D03*
X800100Y584200D02*
G54D13*
D03*
X850900Y558800D02*
G54D13*
D03*
X914400Y457200D02*
G54D13*
D03*
X889000Y457200D02*
G54D13*
D03*
X838200Y457200D02*
G54D13*
D03*
X812800Y457200D02*
G54D13*
D03*
X812800Y482600D02*
G54D13*
D03*
X774700Y482600D02*
G54D13*
D03*
X774700Y457200D02*
G54D13*
D03*
X749300Y508000D02*
G54D13*
D03*
X723900Y508000D02*
G54D13*
D03*
X698500Y508000D02*
G54D13*
D03*
X698500Y469900D02*
G54D13*
D03*
X698500Y444500D02*
G54D13*
D03*
X673100Y444500D02*
G54D13*
D03*
X673100Y469900D02*
G54D13*
D03*
X647700Y469900D02*
G54D13*
D03*
X647700Y444500D02*
G54D13*
D03*
G36*
X-33000Y998200D02*
X-17800Y998200D01*
X-17800Y983000D01*
X-33000Y983000D01*
X-33000Y998200D01*
G37*
G36*
X-33000Y922000D02*
X-17800Y922000D01*
X-17800Y906800D01*
X-33000Y906800D01*
X-33000Y922000D01*
G37*
G36*
X-20300Y871200D02*
X-5100Y871200D01*
X-5100Y856000D01*
X-20300Y856000D01*
X-20300Y871200D01*
G37*
G36*
X182900Y998200D02*
X198100Y998200D01*
X198100Y983000D01*
X182900Y983000D01*
X182900Y998200D01*
G37*
G36*
X221000Y922000D02*
X236200Y922000D01*
X236200Y906800D01*
X221000Y906800D01*
X221000Y922000D01*
G37*
G36*
X221000Y845800D02*
X236200Y845800D01*
X236200Y830600D01*
X221000Y830600D01*
X221000Y845800D01*
G37*
G36*
X195600Y845800D02*
X210800Y845800D01*
X210800Y830600D01*
X195600Y830600D01*
X195600Y845800D01*
G37*
G36*
X487700Y960100D02*
X502900Y960100D01*
X502900Y944900D01*
X487700Y944900D01*
X487700Y960100D01*
G37*
G36*
X843300Y972800D02*
X858500Y972800D01*
X858500Y957600D01*
X843300Y957600D01*
X843300Y972800D01*
G37*
G36*
X741700Y998200D02*
X756900Y998200D01*
X756900Y983000D01*
X741700Y983000D01*
X741700Y998200D01*
G37*
G36*
X589300Y998200D02*
X604500Y998200D01*
X604500Y983000D01*
X589300Y983000D01*
X589300Y998200D01*
G37*
G36*
X919500Y883900D02*
X934700Y883900D01*
X934700Y868700D01*
X919500Y868700D01*
X919500Y883900D01*
G37*
G36*
X919500Y782300D02*
X934700Y782300D01*
X934700Y767100D01*
X919500Y767100D01*
X919500Y782300D01*
G37*
G36*
X602000Y731500D02*
X617200Y731500D01*
X617200Y716300D01*
X602000Y716300D01*
X602000Y731500D01*
G37*
G36*
X297200Y769600D02*
X312400Y769600D01*
X312400Y754400D01*
X297200Y754400D01*
X297200Y769600D01*
G37*
G36*
X-33000Y782300D02*
X-17800Y782300D01*
X-17800Y767100D01*
X-33000Y767100D01*
X-33000Y782300D01*
G37*
G36*
X170200Y718800D02*
X185400Y718800D01*
X185400Y703600D01*
X170200Y703600D01*
X170200Y718800D01*
G37*
G36*
X246400Y718800D02*
X261600Y718800D01*
X261600Y703600D01*
X246400Y703600D01*
X246400Y718800D01*
G37*
G36*
X68600Y680700D02*
X83800Y680700D01*
X83800Y665500D01*
X68600Y665500D01*
X68600Y680700D01*
G37*
G36*
X221000Y680700D02*
X236200Y680700D01*
X236200Y665500D01*
X221000Y665500D01*
X221000Y680700D01*
G37*
G36*
X221000Y655300D02*
X236200Y655300D01*
X236200Y640100D01*
X221000Y640100D01*
X221000Y655300D01*
G37*
G36*
X195600Y655300D02*
X210800Y655300D01*
X210800Y640100D01*
X195600Y640100D01*
X195600Y655300D01*
G37*
G36*
X246400Y718800D02*
X261600Y718800D01*
X261600Y703600D01*
X246400Y703600D01*
X246400Y718800D01*
G37*
G36*
X170200Y718800D02*
X185400Y718800D01*
X185400Y703600D01*
X170200Y703600D01*
X170200Y718800D01*
G37*
G36*
X640100Y680700D02*
X655300Y680700D01*
X655300Y665500D01*
X640100Y665500D01*
X640100Y680700D01*
G37*
G36*
X513100Y629900D02*
X528300Y629900D01*
X528300Y614700D01*
X513100Y614700D01*
X513100Y629900D01*
G37*
G36*
X246400Y629900D02*
X261600Y629900D01*
X261600Y614700D01*
X246400Y614700D01*
X246400Y629900D01*
G37*
G36*
X-33000Y452100D02*
X-17800Y452100D01*
X-17800Y436900D01*
X-33000Y436900D01*
X-33000Y452100D01*
G37*
G36*
X43200Y452100D02*
X58400Y452100D01*
X58400Y436900D01*
X43200Y436900D01*
X43200Y452100D01*
G37*
G36*
X68600Y477500D02*
X83800Y477500D01*
X83800Y462300D01*
X68600Y462300D01*
X68600Y477500D01*
G37*
G36*
X741700Y541000D02*
X756900Y541000D01*
X756900Y525800D01*
X741700Y525800D01*
X741700Y541000D01*
G37*
G36*
X906800Y490200D02*
X922000Y490200D01*
X922000Y475000D01*
X906800Y475000D01*
X906800Y490200D01*
G37*
X354750Y534950D02*
G54D13*
D03*
X368300Y863600D02*
G54D13*
D03*
G54D14*
X205233Y358933D02*
X206567Y356711D01*
X209233Y355600D01*
X211900Y355600D01*
X214567Y356711D01*
X215900Y358933D01*
X215900Y370044D01*
X214567Y372267D01*
X211900Y373378D01*
X209233Y373378D01*
X206567Y372267D01*
X205233Y370044D01*
G54D14*
X200344Y373378D02*
X200344Y355600D01*
X193677Y366711D01*
X187011Y355600D01*
X187011Y373378D01*
G54D14*
X182122Y370044D02*
X180789Y372267D01*
X178122Y373378D01*
X175455Y373378D01*
X172789Y372267D01*
X171455Y370044D01*
X171455Y367822D01*
X172789Y365600D01*
X175455Y364489D01*
X172789Y363378D01*
X171455Y361156D01*
X171455Y358933D01*
X172789Y356711D01*
X175455Y355600D01*
X178122Y355600D01*
X180789Y356711D01*
X182122Y358933D01*
G54D14*
X166566Y363378D02*
X155899Y363378D01*
G54D14*
X151010Y373378D02*
X151010Y355600D01*
X141677Y355600D01*
G54D14*
X136788Y373378D02*
X126121Y373378D01*
X136788Y355600D01*
X126121Y355600D01*
G54D14*
X121232Y366711D02*
X114565Y373378D01*
X114565Y355600D01*
G54D14*
X109676Y355600D02*
X109676Y373378D01*
X103009Y373378D01*
X100343Y372267D01*
X99009Y370044D01*
X99009Y358933D01*
X100343Y356711D01*
X103009Y355600D01*
X109676Y355600D01*
G54D14*
X94120Y355600D02*
X94120Y373378D01*
X87453Y373378D01*
X84787Y372267D01*
X83453Y370044D01*
X83453Y367822D01*
X84787Y365600D01*
X87453Y364489D01*
X94120Y364489D01*
G54D14*
X78564Y355600D02*
X78564Y373378D01*
X67897Y355600D01*
X67897Y373378D01*
G54D14*
X63008Y363378D02*
X52341Y363378D01*
G54D14*
X36785Y355600D02*
X47452Y355600D01*
X47452Y356711D01*
X46119Y358933D01*
X38119Y365600D01*
X36785Y367822D01*
X36785Y370044D01*
X38119Y372267D01*
X40785Y373378D01*
X43452Y373378D01*
X46119Y372267D01*
X47452Y370044D01*
G54D14*
X21229Y370044D02*
X21229Y358933D01*
X22563Y356711D01*
X25229Y355600D01*
X27896Y355600D01*
X30563Y356711D01*
X31896Y358933D01*
X31896Y370044D01*
X30563Y372267D01*
X27896Y373378D01*
X25229Y373378D01*
X22563Y372267D01*
X21229Y370044D01*
G54D14*
X16340Y366711D02*
X9673Y373378D01*
X9673Y355600D01*
G54D14*
X-1883Y364489D02*
X784Y364489D01*
X3451Y365600D01*
X4784Y367822D01*
X4784Y370044D01*
X3451Y372267D01*
X784Y373378D01*
X-1883Y373378D01*
X-4549Y372267D01*
X-5883Y370044D01*
X-5883Y367822D01*
X-4549Y365600D01*
X-1883Y364489D01*
X-4549Y363378D01*
X-5883Y361156D01*
X-5883Y358933D01*
X-4549Y356711D01*
X-1883Y355600D01*
X784Y355600D01*
X3451Y356711D01*
X4784Y358933D01*
X4784Y361156D01*
X3451Y363378D01*
X784Y364489D01*
M02*
