%FSLAX34Y34*%
%MOMM*%
%LNCOPPER_BOTTOM*%
G71*
G01*
%ADD10C, 0.00*%
%ADD11C, 0.15*%
%ADD12C, 0.10*%
%ADD13C, 0.12*%
%ADD14C, 0.00*%
%ADD15C, 0.30*%
%ADD16C, 0.20*%
%LPD*%
G54D10*
X-50000Y1050000D02*
X1050000Y1050000D01*
X1050000Y-50000D01*
X-50000Y-50000D01*
X-50000Y1050000D01*
G54D11*
X12700Y952500D02*
X38100Y952500D01*
X38100Y901700D01*
X12700Y901700D01*
X12700Y952500D01*
G54D11*
X139700Y914400D02*
X142800Y914400D01*
G54D11*
G75*
G01X139700Y914400D02*
G03X139700Y914400I-12700J0D01*
G01*
G54D11*
X91400Y905700D02*
X91400Y923100D01*
X61000Y923100D01*
X61000Y905700D01*
X91400Y905700D01*
G36*
X91300Y905800D02*
X91300Y922500D01*
X84100Y922500D01*
X84100Y905800D01*
X91300Y905800D01*
G37*
G54D12*
X91300Y905800D02*
X91300Y922500D01*
X84100Y922500D01*
X84100Y905800D01*
X91300Y905800D01*
G54D11*
X196566Y888671D02*
X211766Y893571D01*
X211766Y937171D01*
X196566Y942071D01*
G54D11*
G75*
G01X196466Y942021D02*
G03X196466Y888721I0J-26650D01*
G01*
G54D11*
X228600Y927100D02*
X228600Y952500D01*
X279400Y952500D01*
X279400Y927100D01*
X228600Y927100D01*
G54D11*
X239700Y911200D02*
X268300Y911200D01*
X268300Y892200D01*
X239700Y892200D01*
X239700Y911200D01*
G54D11*
X317500Y950200D02*
X292100Y950200D01*
X292100Y904000D01*
X317500Y904000D01*
X317500Y950200D01*
G54D11*
X312800Y928700D02*
X296800Y928700D01*
G54D11*
X312800Y925500D02*
X296800Y925500D01*
G54D11*
X304800Y928700D02*
X304800Y930300D01*
G54D11*
X304800Y925500D02*
X304800Y923900D01*
G54D11*
X361666Y812471D02*
X376866Y817371D01*
X376866Y860971D01*
X361666Y865871D01*
G54D11*
G75*
G01X361566Y865821D02*
G03X361566Y812521I0J-26650D01*
G01*
G54D11*
X12700Y876300D02*
X38100Y876300D01*
X38100Y825500D01*
X12700Y825500D01*
X12700Y876300D01*
G54D11*
X63500Y850900D02*
X63500Y847800D01*
G54D11*
G75*
G01X63500Y850900D02*
G03X63500Y850900I0J12700D01*
G01*
G54D11*
X101600Y874000D02*
X76200Y874000D01*
X76200Y827800D01*
X101600Y827800D01*
X101600Y874000D01*
G54D11*
X96900Y852500D02*
X80900Y852500D01*
G54D11*
X96900Y849300D02*
X80900Y849300D01*
G54D11*
X88900Y852500D02*
X88900Y854100D01*
G54D11*
X88900Y849300D02*
X88900Y847700D01*
G54D11*
X127000Y838200D02*
X130100Y838200D01*
G54D11*
G75*
G01X127000Y838200D02*
G03X127000Y838200I-12700J0D01*
G01*
G54D11*
X177800Y874000D02*
X152400Y874000D01*
X152400Y827800D01*
X177800Y827800D01*
X177800Y874000D01*
G54D11*
X173100Y852500D02*
X157100Y852500D01*
G54D11*
X173100Y849300D02*
X157100Y849300D01*
G54D11*
X165100Y852500D02*
X165100Y854100D01*
G54D11*
X165100Y849300D02*
X165100Y847700D01*
G54D11*
X203200Y838200D02*
X206300Y838200D01*
G54D11*
G75*
G01X203200Y838200D02*
G03X203200Y838200I-12700J0D01*
G01*
G54D11*
X254000Y874000D02*
X228600Y874000D01*
X228600Y827800D01*
X254000Y827800D01*
X254000Y874000D01*
G54D11*
X249300Y852500D02*
X233300Y852500D01*
G54D11*
X249300Y849300D02*
X233300Y849300D01*
G54D11*
X241300Y852500D02*
X241300Y854100D01*
G54D11*
X241300Y849300D02*
X241300Y847700D01*
G54D11*
X317500Y850900D02*
X317500Y847800D01*
G54D11*
G75*
G01X317500Y850900D02*
G03X317500Y850900I0J12700D01*
G01*
G54D11*
X355600Y912100D02*
X330200Y912100D01*
X330200Y865900D01*
X355600Y865900D01*
X355600Y912100D01*
G54D11*
X350900Y890600D02*
X334900Y890600D01*
G54D11*
X350900Y887400D02*
X334900Y887400D01*
G54D11*
X342900Y890600D02*
X342900Y892200D01*
G54D11*
X342900Y887400D02*
X342900Y885800D01*
G54D11*
X381000Y802400D02*
X406400Y802400D01*
X406400Y848600D01*
X381000Y848600D01*
X381000Y802400D01*
G54D11*
X385700Y823900D02*
X401700Y823900D01*
G54D11*
X385700Y827100D02*
X401700Y827100D01*
G54D11*
X393700Y823900D02*
X393700Y822300D01*
G54D11*
X393700Y827100D02*
X393700Y828700D01*
G54D11*
X437866Y825171D02*
X453066Y830071D01*
X453066Y873671D01*
X437866Y878571D01*
G54D11*
G75*
G01X437766Y878521D02*
G03X437766Y825221I0J-26650D01*
G01*
G54D11*
X393700Y876300D02*
X393700Y873200D01*
G54D11*
G75*
G01X393700Y876300D02*
G03X393700Y876300I0J12700D01*
G01*
G54D11*
X317500Y812800D02*
X320600Y812800D01*
G54D11*
G75*
G01X317500Y812800D02*
G03X317500Y812800I-12700J0D01*
G01*
G54D11*
X454000Y928700D02*
X454000Y900100D01*
X435000Y900100D01*
X435000Y928700D01*
X454000Y928700D01*
G54D11*
X431800Y812800D02*
X434900Y812800D01*
G54D11*
G75*
G01X431800Y812800D02*
G03X431800Y812800I-12700J0D01*
G01*
G54D11*
X482600Y899400D02*
X457200Y899400D01*
X457200Y853200D01*
X482600Y853200D01*
X482600Y899400D01*
G54D11*
X477900Y877900D02*
X461900Y877900D01*
G54D11*
X477900Y874700D02*
X461900Y874700D01*
G54D11*
X469900Y877900D02*
X469900Y879500D01*
G54D11*
X469900Y874700D02*
X469900Y873100D01*
G54D11*
X469900Y825500D02*
X469900Y822400D01*
G54D11*
G75*
G01X469900Y825500D02*
G03X469900Y825500I0J12700D01*
G01*
G54D11*
X495300Y876300D02*
X495300Y873200D01*
G54D11*
G75*
G01X495300Y876300D02*
G03X495300Y876300I0J12700D01*
G01*
G54D11*
G75*
G01X558800Y885143D02*
G03X558800Y885143I0J-46950D01*
G01*
G54D11*
X528800Y802100D02*
X520700Y794000D01*
X514600Y800100D01*
X522700Y808200D01*
G54D11*
X495300Y812800D02*
X495300Y809700D01*
G54D11*
G75*
G01X495300Y812800D02*
G03X495300Y812800I0J12700D01*
G01*
G54D11*
X508000Y950200D02*
X482600Y950200D01*
X482600Y904000D01*
X508000Y904000D01*
X508000Y950200D01*
G54D11*
X503300Y928700D02*
X487300Y928700D01*
G54D11*
X503300Y925500D02*
X487300Y925500D01*
G54D11*
X495300Y928700D02*
X495300Y930300D01*
G54D11*
X495300Y925500D02*
X495300Y923900D01*
G54D11*
X645400Y876300D02*
X645400Y901700D01*
X599200Y901700D01*
X599200Y876300D01*
X645400Y876300D01*
G54D11*
X623900Y881000D02*
X623900Y897000D01*
G54D11*
X620700Y881000D02*
X620700Y897000D01*
G54D11*
X623900Y889000D02*
X625500Y889000D01*
G54D11*
X620700Y889000D02*
X619100Y889000D01*
G54D11*
X662900Y842200D02*
X662900Y859600D01*
X632500Y859600D01*
X632500Y842200D01*
X662900Y842200D01*
G36*
X662800Y842300D02*
X662800Y859000D01*
X655600Y859000D01*
X655600Y842300D01*
X662800Y842300D01*
G37*
G54D12*
X662800Y842300D02*
X662800Y859000D01*
X655600Y859000D01*
X655600Y842300D01*
X662800Y842300D01*
G54D11*
X660400Y835900D02*
X635000Y835900D01*
X635000Y789700D01*
X660400Y789700D01*
X660400Y835900D01*
G54D11*
X655700Y814400D02*
X639700Y814400D01*
G54D11*
X655700Y811200D02*
X639700Y811200D01*
G54D11*
X647700Y814400D02*
X647700Y816000D01*
G54D11*
X647700Y811200D02*
X647700Y809600D01*
G54D11*
X673100Y812800D02*
X673100Y809700D01*
G54D11*
G75*
G01X673100Y812800D02*
G03X673100Y812800I0J12700D01*
G01*
G54D11*
X709200Y788600D02*
X738600Y788600D01*
G54D11*
G75*
G01X708972Y847012D02*
G03X691811Y814046I14528J-28512D01*
G01*
G54D11*
G75*
G01X755262Y814600D02*
G03X739014Y846488I-31762J3900D01*
G01*
G54D11*
G75*
G01X736500Y818500D02*
G03X736500Y818500I-12000J0D01*
G01*
G54D11*
X700500Y922200D02*
X700500Y925400D01*
X720500Y925400D01*
X720500Y922200D01*
X700500Y922200D01*
G54D11*
X700500Y919000D02*
X720500Y919000D01*
G54D11*
G75*
G01X711200Y961700D02*
G03X711200Y961700I0J-40000D01*
G01*
G54D11*
X711200Y918700D02*
X711200Y911700D01*
G54D11*
X711200Y925700D02*
X711200Y931700D01*
G54D13*
X733400Y947700D02*
X733400Y937000D01*
G54D13*
X729000Y942400D02*
X737900Y942400D01*
G54D11*
X604278Y927499D02*
X601178Y927499D01*
G54D11*
G75*
G01X604278Y927499D02*
G03X604278Y927499I12700J0D01*
G01*
G54D11*
X635000Y952500D02*
X660400Y952500D01*
X660400Y901700D01*
X635000Y901700D01*
X635000Y952500D01*
G54D11*
X774700Y950200D02*
X749300Y950200D01*
X749300Y904000D01*
X774700Y904000D01*
X774700Y950200D01*
G54D11*
X770000Y928700D02*
X754000Y928700D01*
G54D11*
X770000Y925500D02*
X754000Y925500D01*
G54D11*
X762000Y928700D02*
X762000Y930300D01*
G54D11*
X762000Y925500D02*
X762000Y923900D01*
G54D11*
G75*
G01X850900Y897843D02*
G03X850900Y897843I0J-46950D01*
G01*
G54D11*
X820900Y814800D02*
X812800Y806700D01*
X806700Y812800D01*
X814800Y820900D01*
G54D11*
X784200Y839800D02*
X784200Y811200D01*
X765200Y811200D01*
X765200Y839800D01*
X784200Y839800D01*
G54D11*
X787400Y952500D02*
X812800Y952500D01*
X812800Y901700D01*
X787400Y901700D01*
X787400Y952500D01*
G54D11*
X965200Y853200D02*
X990600Y853200D01*
X990600Y899400D01*
X965200Y899400D01*
X965200Y853200D01*
G54D11*
X969900Y874700D02*
X985900Y874700D01*
G54D11*
X969900Y877900D02*
X985900Y877900D01*
G54D11*
X977900Y874700D02*
X977900Y873100D01*
G54D11*
X977900Y877900D02*
X977900Y879500D01*
G54D11*
X965200Y838200D02*
X990600Y838200D01*
X990600Y787400D01*
X965200Y787400D01*
X965200Y838200D01*
G54D11*
X927100Y812800D02*
X927100Y809700D01*
G54D11*
G75*
G01X927100Y812800D02*
G03X927100Y812800I0J12700D01*
G01*
G54D11*
X142900Y558800D02*
X119000Y558800D01*
X119000Y549300D01*
X109600Y549300D01*
X109600Y558800D01*
X85700Y558800D01*
X85700Y457200D01*
X142900Y457200D01*
X142900Y558800D01*
G36*
X85700Y558900D02*
X98400Y558900D01*
X85700Y546100D01*
X85700Y558900D01*
G37*
G54D14*
X85700Y558900D02*
X98400Y558900D01*
X85700Y546100D01*
X85700Y558900D01*
G54D11*
X765200Y571500D02*
X741300Y571500D01*
X741300Y562000D01*
X731900Y562000D01*
X731900Y571500D01*
X708000Y571500D01*
X708000Y469900D01*
X765200Y469900D01*
X765200Y571500D01*
G36*
X708000Y571600D02*
X720700Y571600D01*
X708000Y558800D01*
X708000Y571600D01*
G37*
G54D14*
X708000Y571600D02*
X720700Y571600D01*
X708000Y558800D01*
X708000Y571600D01*
G54D11*
X364250Y538250D02*
X364250Y477950D01*
G54D11*
X319850Y538150D02*
X319850Y477850D01*
G54D11*
G75*
G01X364250Y538050D02*
G03X319850Y538050I-22200J0D01*
G01*
G54D11*
G75*
G01X319850Y477950D02*
G03X364250Y477950I22200J0D01*
G01*
G54D15*
X633485Y635835D02*
X633385Y736435D01*
X433485Y736335D01*
X433485Y635835D01*
X633485Y635835D01*
G54D16*
X444885Y647935D02*
X470285Y647935D01*
X470285Y654235D01*
X470285Y654135D01*
X487785Y660535D01*
X487785Y660635D01*
X457585Y668535D01*
X489385Y676535D01*
X457585Y684435D01*
X489385Y694035D01*
X457585Y703435D01*
X489385Y711435D01*
X470285Y717835D01*
X470285Y724135D01*
X444885Y724135D01*
G54D16*
X622685Y647935D02*
X622685Y673235D01*
X603685Y673235D01*
G54D16*
X571885Y647935D02*
X571885Y673235D01*
X590885Y673235D01*
G54D16*
X622685Y724135D02*
X622685Y698735D01*
X603685Y698735D01*
G54D16*
X571885Y724135D02*
X571885Y698735D01*
X590885Y698735D01*
G36*
X603685Y673335D02*
X603585Y673335D01*
X616285Y666935D01*
X616285Y679635D01*
X603685Y673235D01*
X603685Y673335D01*
G37*
G54D15*
X603685Y673335D02*
X603585Y673335D01*
X616285Y666935D01*
X616285Y679635D01*
X603685Y673235D01*
X603685Y673335D01*
G36*
X603785Y698735D02*
X603685Y698735D01*
X616385Y692335D01*
X616385Y705035D01*
X603785Y698635D01*
X603785Y698735D01*
G37*
G54D15*
X603785Y698735D02*
X603685Y698735D01*
X616385Y692335D01*
X616385Y705035D01*
X603785Y698635D01*
X603785Y698735D01*
G36*
X590685Y673435D02*
X590785Y673435D01*
X578085Y679835D01*
X578085Y667135D01*
X590685Y673535D01*
X590685Y673435D01*
G37*
G54D15*
X590685Y673435D02*
X590785Y673435D01*
X578085Y679835D01*
X578085Y667135D01*
X590685Y673535D01*
X590685Y673435D01*
G36*
X590785Y698735D02*
X590885Y698735D01*
X578185Y705135D01*
X578185Y692435D01*
X590785Y698835D01*
X590785Y698735D01*
G37*
G54D15*
X590785Y698735D02*
X590885Y698735D01*
X578185Y705135D01*
X578185Y692435D01*
X590785Y698835D01*
X590785Y698735D01*
G54D16*
X590885Y673335D02*
X590985Y673335D01*
X597385Y654335D01*
X597285Y654335D01*
X597285Y640035D01*
X533785Y640035D01*
X521085Y640035D01*
X521085Y647935D01*
G54D16*
X590885Y698735D02*
X590885Y698735D01*
X597285Y717735D01*
X597285Y732035D01*
X521085Y732035D01*
X521085Y724135D01*
G54D11*
X965200Y736600D02*
X990600Y736600D01*
X990600Y685800D01*
X965200Y685800D01*
X965200Y736600D01*
G54D11*
X927100Y688100D02*
X952500Y688100D01*
X952500Y734300D01*
X927100Y734300D01*
X927100Y688100D01*
G54D11*
X931800Y709600D02*
X947800Y709600D01*
G54D11*
X931800Y712800D02*
X947800Y712800D01*
G54D11*
X939800Y709600D02*
X939800Y708000D01*
G54D11*
X939800Y712800D02*
X939800Y714400D01*
G54D11*
X890600Y714400D02*
X862000Y714400D01*
X862000Y733400D01*
X890600Y733400D01*
X890600Y714400D01*
G54D11*
X800100Y688100D02*
X825500Y688100D01*
X825500Y734300D01*
X800100Y734300D01*
X800100Y688100D01*
G54D11*
X804800Y709600D02*
X820800Y709600D01*
G54D11*
X804800Y712800D02*
X820800Y712800D01*
G54D11*
X812800Y709600D02*
X812800Y708000D01*
G54D11*
X812800Y712800D02*
X812800Y714400D01*
G54D11*
X763600Y714400D02*
X735000Y714400D01*
X735000Y733400D01*
X763600Y733400D01*
X763600Y714400D01*
G54D11*
X673100Y688100D02*
X698500Y688100D01*
X698500Y734300D01*
X673100Y734300D01*
X673100Y688100D01*
G54D11*
X677800Y709600D02*
X693800Y709600D01*
G54D11*
X677800Y712800D02*
X693800Y712800D01*
G54D11*
X685800Y709600D02*
X685800Y708000D01*
G54D11*
X685800Y712800D02*
X685800Y714400D01*
G54D11*
X12700Y736600D02*
X38100Y736600D01*
X38100Y685800D01*
X12700Y685800D01*
X12700Y736600D01*
G54D11*
X104100Y715200D02*
X104100Y732600D01*
X73700Y732600D01*
X73700Y715200D01*
X104100Y715200D01*
G36*
X104000Y715300D02*
X104000Y732000D01*
X96800Y732000D01*
X96800Y715300D01*
X104000Y715300D01*
G37*
G54D12*
X104000Y715300D02*
X104000Y732000D01*
X96800Y732000D01*
X96800Y715300D01*
X104000Y715300D01*
G54D11*
X152400Y723900D02*
X155500Y723900D01*
G54D11*
G75*
G01X152400Y723900D02*
G03X152400Y723900I-12700J0D01*
G01*
G54D11*
X209266Y698171D02*
X224466Y703071D01*
X224466Y746671D01*
X209266Y751571D01*
G54D11*
G75*
G01X209166Y751521D02*
G03X209166Y698221I0J-26650D01*
G01*
G54D11*
X410400Y657900D02*
X427800Y657900D01*
X427800Y688300D01*
X410400Y688300D01*
X410400Y657900D01*
G36*
X410500Y658000D02*
X427200Y658000D01*
X427200Y665200D01*
X410500Y665200D01*
X410500Y658000D01*
G37*
G54D12*
X410500Y658000D02*
X427200Y658000D01*
X427200Y665200D01*
X410500Y665200D01*
X410500Y658000D01*
G54D11*
X647700Y685800D02*
X673100Y685800D01*
X673100Y635000D01*
X647700Y635000D01*
X647700Y685800D01*
G54D11*
X427750Y538250D02*
X427750Y477950D01*
G54D11*
X383350Y538150D02*
X383350Y477850D01*
G54D11*
G75*
G01X427750Y538050D02*
G03X383350Y538050I-22200J0D01*
G01*
G54D11*
G75*
G01X383350Y477950D02*
G03X427750Y477950I22200J0D01*
G01*
G54D11*
X491250Y538250D02*
X491250Y477950D01*
G54D11*
X446850Y538150D02*
X446850Y477850D01*
G54D11*
G75*
G01X491250Y538050D02*
G03X446850Y538050I-22200J0D01*
G01*
G54D11*
G75*
G01X446850Y477950D02*
G03X491250Y477950I22200J0D01*
G01*
G54D11*
X554750Y538250D02*
X554750Y477950D01*
G54D11*
X510350Y538150D02*
X510350Y477850D01*
G54D11*
G75*
G01X554750Y538050D02*
G03X510350Y538050I-22200J0D01*
G01*
G54D11*
G75*
G01X510350Y477950D02*
G03X554750Y477950I22200J0D01*
G01*
G54D11*
X368300Y561100D02*
X393700Y561100D01*
X393700Y607300D01*
X368300Y607300D01*
X368300Y561100D01*
G54D11*
X373000Y582600D02*
X389000Y582600D01*
G54D11*
X373000Y585800D02*
X389000Y585800D01*
G54D11*
X381000Y582600D02*
X381000Y581000D01*
G54D11*
X381000Y585800D02*
X381000Y587400D01*
G54D11*
X431800Y561100D02*
X457200Y561100D01*
X457200Y607300D01*
X431800Y607300D01*
X431800Y561100D01*
G54D11*
X436500Y582600D02*
X452500Y582600D01*
G54D11*
X436500Y585800D02*
X452500Y585800D01*
G54D11*
X444500Y582600D02*
X444500Y581000D01*
G54D11*
X444500Y585800D02*
X444500Y587400D01*
G54D11*
X495300Y561100D02*
X520700Y561100D01*
X520700Y607300D01*
X495300Y607300D01*
X495300Y561100D01*
G54D11*
X500000Y582600D02*
X516000Y582600D01*
G54D11*
X500000Y585800D02*
X516000Y585800D01*
G54D11*
X508000Y582600D02*
X508000Y581000D01*
G54D11*
X508000Y585800D02*
X508000Y587400D01*
G54D11*
X260066Y507671D02*
X275266Y512571D01*
X275266Y556171D01*
X260066Y561071D01*
G54D11*
G75*
G01X259966Y561021D02*
G03X259966Y507721I0J-26650D01*
G01*
G54D11*
X266700Y482600D02*
X266700Y479500D01*
G54D11*
G75*
G01X266700Y482600D02*
G03X266700Y482600I0J12700D01*
G01*
G54D11*
X558800Y510300D02*
X584200Y510300D01*
X584200Y556500D01*
X558800Y556500D01*
X558800Y510300D01*
G54D11*
X563500Y531800D02*
X579500Y531800D01*
G54D11*
X563500Y535000D02*
X579500Y535000D01*
G54D11*
X571500Y531800D02*
X571500Y530200D01*
G54D11*
X571500Y535000D02*
X571500Y536600D01*
G54D11*
X584200Y482600D02*
X581100Y482600D01*
G54D11*
G75*
G01X584200Y482600D02*
G03X584200Y482600I12700J0D01*
G01*
G54D11*
X61200Y533400D02*
X61200Y558800D01*
X15000Y558800D01*
X15000Y533400D01*
X61200Y533400D01*
G54D11*
X39700Y538100D02*
X39700Y554100D01*
G54D11*
X36500Y538100D02*
X36500Y554100D01*
G54D11*
X39700Y546100D02*
X41300Y546100D01*
G54D11*
X36500Y546100D02*
X34900Y546100D01*
G54D11*
X61200Y508000D02*
X61200Y533400D01*
X15000Y533400D01*
X15000Y508000D01*
X61200Y508000D01*
G54D11*
X39700Y512700D02*
X39700Y528700D01*
G54D11*
X36500Y512700D02*
X36500Y528700D01*
G54D11*
X39700Y520700D02*
X41300Y520700D01*
G54D11*
X36500Y520700D02*
X34900Y520700D01*
G54D11*
X213600Y482600D02*
X213600Y508000D01*
X167400Y508000D01*
X167400Y482600D01*
X213600Y482600D01*
G54D11*
X192100Y487300D02*
X192100Y503300D01*
G54D11*
X188900Y487300D02*
X188900Y503300D01*
G54D11*
X192100Y495300D02*
X193700Y495300D01*
G54D11*
X188900Y495300D02*
X187300Y495300D01*
G54D11*
X213600Y533400D02*
X213600Y558800D01*
X167400Y558800D01*
X167400Y533400D01*
X213600Y533400D01*
G54D11*
X192100Y538100D02*
X192100Y554100D01*
G54D11*
X188900Y538100D02*
X188900Y554100D01*
G54D11*
X192100Y546100D02*
X193700Y546100D01*
G54D11*
X188900Y546100D02*
X187300Y546100D01*
G54D11*
X635000Y495300D02*
X635000Y492200D01*
G54D11*
G75*
G01X635000Y495300D02*
G03X635000Y495300I0J12700D01*
G01*
G54D11*
X645700Y578300D02*
X645700Y575100D01*
X625700Y575100D01*
X625700Y578300D01*
X645700Y578300D01*
G54D11*
X645700Y581500D02*
X625700Y581500D01*
G54D11*
G75*
G01X635000Y538800D02*
G03X635000Y538800I0J40000D01*
G01*
G54D11*
X635000Y581800D02*
X635000Y588800D01*
G54D11*
X635000Y574800D02*
X635000Y568800D01*
G54D13*
X612800Y552800D02*
X612800Y563500D01*
G54D13*
X617200Y558100D02*
X608300Y558100D01*
G54D11*
X292100Y558800D02*
X292100Y584200D01*
X317500Y584200D01*
X317500Y558800D01*
X292100Y558800D01*
G54D11*
X241300Y774700D02*
X241300Y800100D01*
X266700Y800100D01*
X266700Y774700D01*
X241300Y774700D01*
G54D11*
X241300Y584200D02*
X241300Y609600D01*
X266700Y609600D01*
X266700Y584200D01*
X241300Y584200D01*
G54D11*
X241300Y698500D02*
X241300Y723900D01*
X266700Y723900D01*
X266700Y698500D01*
X241300Y698500D01*
G54D11*
X177800Y596900D02*
X180900Y596900D01*
G54D11*
G75*
G01X177800Y596900D02*
G03X177800Y596900I-12700J0D01*
G01*
G54D11*
X266700Y850900D02*
X266700Y876300D01*
X292100Y876300D01*
X292100Y850900D01*
X266700Y850900D01*
G54D11*
X266700Y774700D02*
X266700Y800100D01*
X292100Y800100D01*
X292100Y774700D01*
X266700Y774700D01*
G54D11*
X266700Y635000D02*
X266700Y660400D01*
X292100Y660400D01*
X292100Y635000D01*
X266700Y635000D01*
G54D11*
X177800Y635000D02*
X177800Y660400D01*
X203200Y660400D01*
X203200Y635000D01*
X177800Y635000D01*
G54D11*
X266700Y584200D02*
X266700Y609600D01*
X292100Y609600D01*
X292100Y584200D01*
X266700Y584200D01*
G54D11*
X256300Y850900D02*
X256300Y825500D01*
X327900Y825500D01*
X327900Y850900D01*
X256300Y850900D01*
G54D11*
X290500Y846200D02*
X290500Y830200D01*
G54D11*
X293700Y846200D02*
X293700Y830200D01*
G54D11*
X277800Y838200D02*
X290500Y838200D01*
G54D11*
X293700Y838200D02*
X306400Y838200D01*
G54D11*
X787400Y497600D02*
X812800Y497600D01*
X812800Y543800D01*
X787400Y543800D01*
X787400Y497600D01*
G54D11*
X792100Y519100D02*
X808100Y519100D01*
G54D11*
X792100Y522300D02*
X808100Y522300D01*
G54D11*
X800100Y519100D02*
X800100Y517500D01*
G54D11*
X800100Y522300D02*
X800100Y523900D01*
G54D11*
X835900Y546100D02*
X835900Y571500D01*
X789700Y571500D01*
X789700Y546100D01*
X835900Y546100D01*
G54D11*
X814400Y550800D02*
X814400Y566800D01*
G54D11*
X811200Y550800D02*
X811200Y566800D01*
G54D11*
X814400Y558800D02*
X816000Y558800D01*
G54D11*
X811200Y558800D02*
X809600Y558800D01*
G54D11*
X861300Y520700D02*
X861300Y546100D01*
X815100Y546100D01*
X815100Y520700D01*
X861300Y520700D01*
G54D11*
X839800Y525400D02*
X839800Y541400D01*
G54D11*
X836600Y525400D02*
X836600Y541400D01*
G54D11*
X839800Y533400D02*
X841400Y533400D01*
G54D11*
X836600Y533400D02*
X835000Y533400D01*
G54D11*
X838200Y508000D02*
X835100Y508000D01*
G54D11*
G75*
G01X838200Y508000D02*
G03X838200Y508000I12700J0D01*
G01*
G54D11*
X896000Y530200D02*
X956300Y530200D01*
G54D11*
X896100Y485800D02*
X956400Y485800D01*
G54D11*
G75*
G01X896200Y530200D02*
G03X896200Y485800I0J-22200D01*
G01*
G54D11*
G75*
G01X956300Y485800D02*
G03X956300Y530200I0J22200D01*
G01*
G54D11*
G75*
G01X988500Y596900D02*
G03X988500Y596900I-49500J0D01*
G01*
G54D11*
X884000Y621900D02*
X884000Y571900D01*
X895900Y571900D01*
X896100Y572100D01*
G54D11*
X884000Y621900D02*
X896100Y621900D01*
X896200Y621800D01*
G54D11*
G75*
G01X951000Y596900D02*
G03X951000Y596900I-12000J0D01*
G01*
G54D11*
X930000Y589900D02*
X946000Y605900D01*
G54D11*
X932000Y587900D02*
X948000Y603900D01*
G54D11*
X838200Y586500D02*
X863600Y586500D01*
X863600Y632700D01*
X838200Y632700D01*
X838200Y586500D01*
G54D11*
X842900Y608000D02*
X858900Y608000D01*
G54D11*
X842900Y611200D02*
X858900Y611200D01*
G54D11*
X850900Y608000D02*
X850900Y606400D01*
G54D11*
X850900Y611200D02*
X850900Y612800D01*
G54D11*
X685800Y609600D02*
X685800Y635000D01*
X711200Y635000D01*
X711200Y609600D01*
X685800Y609600D01*
G54D11*
X762000Y622300D02*
X765100Y622300D01*
G54D11*
G75*
G01X762000Y622300D02*
G03X762000Y622300I-12700J0D01*
G01*
G54D11*
X342900Y635000D02*
X342900Y660400D01*
X393700Y660400D01*
X393700Y635000D01*
X342900Y635000D01*
G54D11*
X342900Y660400D02*
X342900Y685800D01*
X368300Y685800D01*
X368300Y660400D01*
X342900Y660400D01*
G54D11*
X342900Y762000D02*
X342900Y787400D01*
X368300Y787400D01*
X368300Y762000D01*
X342900Y762000D01*
G54D11*
X558800Y558800D02*
X558800Y584200D01*
X584200Y584200D01*
X584200Y558800D01*
X558800Y558800D01*
G54D11*
X759700Y406400D02*
X759700Y431800D01*
X713500Y431800D01*
X713500Y406400D01*
X759700Y406400D01*
G54D11*
X738200Y411100D02*
X738200Y427100D01*
G54D11*
X735000Y411100D02*
X735000Y427100D01*
G54D11*
X738200Y419100D02*
X739800Y419100D01*
G54D11*
X735000Y419100D02*
X733400Y419100D01*
G54D11*
X759700Y381000D02*
X759700Y406400D01*
X713500Y406400D01*
X713500Y381000D01*
X759700Y381000D01*
G54D11*
X738200Y385700D02*
X738200Y401700D01*
G54D11*
X735000Y385700D02*
X735000Y401700D01*
G54D11*
X738200Y393700D02*
X739800Y393700D01*
G54D11*
X735000Y393700D02*
X733400Y393700D01*
G54D11*
X698500Y406400D02*
X698500Y403300D01*
G54D11*
G75*
G01X698500Y406400D02*
G03X698500Y406400I0J12700D01*
G01*
G54D11*
X666466Y380671D02*
X681666Y385571D01*
X681666Y429171D01*
X666466Y434071D01*
G54D11*
G75*
G01X666366Y434021D02*
G03X666366Y380721I0J-26650D01*
G01*
G54D11*
X952500Y444500D02*
X977900Y444500D01*
X977900Y393700D01*
X952500Y393700D01*
X952500Y444500D01*
G54D11*
X899200Y415100D02*
X899200Y397700D01*
X929600Y397700D01*
X929600Y415100D01*
X899200Y415100D01*
G36*
X899300Y415000D02*
X899300Y398300D01*
X906500Y398300D01*
X906500Y415000D01*
X899300Y415000D01*
G37*
G54D12*
X899300Y415000D02*
X899300Y398300D01*
X906500Y398300D01*
X906500Y415000D01*
X899300Y415000D01*
G54D11*
X850900Y396000D02*
X876300Y396000D01*
X876300Y442200D01*
X850900Y442200D01*
X850900Y396000D01*
G54D11*
X855600Y417500D02*
X871600Y417500D01*
G54D11*
X855600Y420700D02*
X871600Y420700D01*
G54D11*
X863600Y417500D02*
X863600Y415900D01*
G54D11*
X863600Y420700D02*
X863600Y422300D01*
G54D11*
X825500Y419100D02*
X825500Y416000D01*
G54D11*
G75*
G01X825500Y419100D02*
G03X825500Y419100I0J12700D01*
G01*
G54D11*
X517351Y330190D02*
X541251Y330191D01*
X541251Y339690D01*
X550651Y339690D01*
X550651Y330191D01*
X574551Y330191D01*
X574551Y431790D01*
X517351Y431790D01*
X517351Y330190D01*
G36*
X574551Y330090D02*
X561851Y330090D01*
X574551Y342890D01*
X574551Y330090D01*
G37*
G54D14*
X574551Y330090D02*
X561851Y330090D01*
X574551Y342890D01*
X574551Y330090D01*
G54D11*
X469900Y294400D02*
X495300Y294400D01*
X495300Y340600D01*
X469900Y340600D01*
X469900Y294400D01*
G54D11*
X474600Y315900D02*
X490600Y315900D01*
G54D11*
X474600Y319100D02*
X490600Y319100D01*
G54D11*
X482600Y315900D02*
X482600Y314300D01*
G54D11*
X482600Y319100D02*
X482600Y320700D01*
G54D11*
X442500Y400500D02*
X442500Y397300D01*
X422500Y397300D01*
X422500Y400500D01*
X442500Y400500D01*
G54D11*
X442500Y403700D02*
X422500Y403700D01*
G54D11*
G75*
G01X431800Y361000D02*
G03X431800Y361000I0J40000D01*
G01*
G54D11*
X431800Y404000D02*
X431800Y411000D01*
G54D11*
X431800Y397000D02*
X431800Y391000D01*
G54D13*
X409600Y375000D02*
X409600Y385700D01*
G54D13*
X414000Y380300D02*
X405100Y380300D01*
G54D11*
X473100Y400000D02*
X492100Y400000D01*
X492100Y362000D01*
X473100Y362000D01*
X473100Y400000D01*
G54D11*
X482600Y400100D02*
X482600Y408000D01*
G54D11*
X482600Y362000D02*
X482600Y354100D01*
G54D11*
X353600Y400500D02*
X353600Y397300D01*
X333600Y397300D01*
X333600Y400500D01*
X353600Y400500D01*
G54D11*
X353600Y403700D02*
X333600Y403700D01*
G54D11*
G75*
G01X342900Y361000D02*
G03X342900Y361000I0J40000D01*
G01*
G54D11*
X342900Y404000D02*
X342900Y411000D01*
G54D11*
X342900Y397000D02*
X342900Y391000D01*
G54D13*
X320700Y375000D02*
X320700Y385700D01*
G54D13*
X325100Y380300D02*
X316200Y380300D01*
G54D11*
X88900Y635000D02*
X88900Y660400D01*
X114300Y660400D01*
X114300Y635000D01*
X88900Y635000D01*
G54D11*
X88900Y406400D02*
X88900Y431800D01*
X114300Y431800D01*
X114300Y406400D01*
X88900Y406400D01*
G54D11*
X88900Y584200D02*
X88900Y609600D01*
X114300Y609600D01*
X114300Y584200D01*
X88900Y584200D01*
G54D11*
X376100Y353600D02*
X379300Y353600D01*
X379300Y333600D01*
X376100Y333600D01*
X376100Y353600D01*
G54D11*
X372900Y353600D02*
X372900Y333600D01*
G54D11*
G75*
G01X415600Y342900D02*
G03X415600Y342900I-40000J0D01*
G01*
G54D11*
X372600Y342900D02*
X365600Y342900D01*
G54D11*
X379600Y342900D02*
X385600Y342900D01*
G54D13*
X401600Y320700D02*
X390900Y320700D01*
G54D13*
X396300Y325100D02*
X396300Y316200D01*
G54D11*
X278200Y353600D02*
X278200Y383000D01*
G54D11*
G75*
G01X219788Y353372D02*
G03X252753Y336211I28512J14528D01*
G01*
G54D11*
G75*
G01X252200Y399662D02*
G03X220312Y383414I-3900J-31762D01*
G01*
G54D11*
G75*
G01X248300Y380900D02*
G03X248300Y380900I0J-12000D01*
G01*
G54D11*
X12700Y406400D02*
X38100Y406400D01*
X38100Y355600D01*
X12700Y355600D01*
X12700Y406400D01*
G54D11*
X574700Y190500D02*
X550800Y190500D01*
X550800Y181000D01*
X541400Y181000D01*
X541400Y190500D01*
X517500Y190500D01*
X517500Y88900D01*
X574700Y88900D01*
X574700Y190500D01*
G36*
X517500Y190600D02*
X530200Y190600D01*
X517500Y177800D01*
X517500Y190600D01*
G37*
G54D14*
X517500Y190600D02*
X530200Y190600D01*
X517500Y177800D01*
X517500Y190600D01*
G54D11*
X645700Y324300D02*
X645700Y321100D01*
X625700Y321100D01*
X625700Y324300D01*
X645700Y324300D01*
G54D11*
X645700Y327500D02*
X625700Y327500D01*
G54D11*
G75*
G01X635000Y284800D02*
G03X635000Y284800I0J40000D01*
G01*
G54D11*
X635000Y327800D02*
X635000Y334800D01*
G54D11*
X635000Y320800D02*
X635000Y314800D01*
G54D13*
X612800Y298800D02*
X612800Y309500D01*
G54D13*
X617200Y304100D02*
X608300Y304100D01*
G54D11*
X304800Y342900D02*
X301700Y342900D01*
G54D11*
G75*
G01X304800Y342900D02*
G03X304800Y342900I12700J0D01*
G01*
G54D11*
X12700Y165100D02*
X38100Y165100D01*
X38100Y114300D01*
X12700Y114300D01*
X12700Y165100D01*
G54D11*
X76200Y152400D02*
X73100Y152400D01*
G54D11*
G75*
G01X76200Y152400D02*
G03X76200Y152400I12700J0D01*
G01*
G54D11*
X76200Y127000D02*
X73100Y127000D01*
G54D11*
G75*
G01X76200Y127000D02*
G03X76200Y127000I12700J0D01*
G01*
G54D11*
X787400Y495300D02*
X812800Y495300D01*
X812800Y444500D01*
X787400Y444500D01*
X787400Y495300D01*
G54D11*
X785100Y444500D02*
X785100Y469900D01*
X738900Y469900D01*
X738900Y444500D01*
X785100Y444500D01*
G54D11*
X763600Y449200D02*
X763600Y465200D01*
G54D11*
X760400Y449200D02*
X760400Y465200D01*
G54D11*
X763600Y457200D02*
X765200Y457200D01*
G54D11*
X760400Y457200D02*
X758800Y457200D01*
G54D11*
X381000Y177800D02*
X377900Y177800D01*
G54D11*
G75*
G01X381000Y177800D02*
G03X381000Y177800I12700J0D01*
G01*
G54D11*
X404100Y203200D02*
X404100Y228600D01*
X357900Y228600D01*
X357900Y203200D01*
X404100Y203200D01*
G54D11*
X382600Y207900D02*
X382600Y223900D01*
G54D11*
X379400Y207900D02*
X379400Y223900D01*
G54D11*
X382600Y215900D02*
X384200Y215900D01*
G54D11*
X379400Y215900D02*
X377800Y215900D01*
G54D11*
X365800Y262700D02*
X365800Y245300D01*
X396200Y245300D01*
X396200Y262700D01*
X365800Y262700D01*
G36*
X365900Y262600D02*
X365900Y245900D01*
X373100Y245900D01*
X373100Y262600D01*
X365900Y262600D01*
G37*
G54D12*
X365900Y262600D02*
X365900Y245900D01*
X373100Y245900D01*
X373100Y262600D01*
X365900Y262600D01*
G54D11*
X396200Y270700D02*
X396200Y288100D01*
X365800Y288100D01*
X365800Y270700D01*
X396200Y270700D01*
G36*
X396100Y270800D02*
X396100Y287500D01*
X388900Y287500D01*
X388900Y270800D01*
X396100Y270800D01*
G37*
G54D12*
X396100Y270800D02*
X396100Y287500D01*
X388900Y287500D01*
X388900Y270800D01*
X396100Y270800D01*
G54D11*
X444500Y215900D02*
X441400Y215900D01*
G54D11*
G75*
G01X444500Y215900D02*
G03X444500Y215900I12700J0D01*
G01*
G54D11*
X152400Y381000D02*
X152400Y406400D01*
X177800Y406400D01*
X177800Y381000D01*
X152400Y381000D01*
G54D11*
X175800Y324300D02*
X175800Y321100D01*
X155800Y321100D01*
X155800Y324300D01*
X175800Y324300D01*
G54D11*
X175800Y327500D02*
X155800Y327500D01*
G54D11*
G75*
G01X165100Y284800D02*
G03X165100Y284800I0J40000D01*
G01*
G54D11*
X165100Y327800D02*
X165100Y334800D01*
G54D11*
X165100Y320800D02*
X165100Y314800D01*
G54D13*
X142900Y298800D02*
X142900Y309500D01*
G54D13*
X147300Y304100D02*
X138400Y304100D01*
G54D11*
X101600Y317500D02*
X101600Y314400D01*
G54D11*
G75*
G01X101600Y317500D02*
G03X101600Y317500I0J12700D01*
G01*
G54D11*
X419100Y91200D02*
X444500Y91200D01*
X444500Y137400D01*
X419100Y137400D01*
X419100Y91200D01*
G54D11*
X423800Y112700D02*
X439800Y112700D01*
G54D11*
X423800Y115900D02*
X439800Y115900D01*
G54D11*
X431800Y112700D02*
X431800Y111100D01*
G54D11*
X431800Y115900D02*
X431800Y117500D01*
G54D11*
X457200Y114300D02*
X457200Y111200D01*
G54D11*
G75*
G01X457200Y114300D02*
G03X457200Y114300I0J12700D01*
G01*
G54D11*
X635000Y101600D02*
X631900Y101600D01*
G54D11*
G75*
G01X635000Y101600D02*
G03X635000Y101600I12700J0D01*
G01*
G54D11*
X711200Y101600D02*
X708100Y101600D01*
G54D11*
G75*
G01X711200Y101600D02*
G03X711200Y101600I12700J0D01*
G01*
G54D11*
X594600Y63500D02*
X594600Y88900D01*
X548400Y88900D01*
X548400Y63500D01*
X594600Y63500D01*
G54D11*
X573100Y68200D02*
X573100Y84200D01*
G54D11*
X569900Y68200D02*
X569900Y84200D01*
G54D11*
X573100Y76200D02*
X574700Y76200D01*
G54D11*
X569900Y76200D02*
X568300Y76200D01*
G54D11*
X622300Y142000D02*
X647700Y142000D01*
X647700Y188200D01*
X622300Y188200D01*
X622300Y142000D01*
G54D11*
X627000Y163500D02*
X643000Y163500D01*
G54D11*
X627000Y166700D02*
X643000Y166700D01*
G54D11*
X635000Y163500D02*
X635000Y161900D01*
G54D11*
X635000Y166700D02*
X635000Y168300D01*
G54D11*
X673100Y165100D02*
X673100Y162000D01*
G54D11*
G75*
G01X673100Y165100D02*
G03X673100Y165100I0J12700D01*
G01*
G54D11*
X670800Y203200D02*
X670800Y228600D01*
X624600Y228600D01*
X624600Y203200D01*
X670800Y203200D01*
G54D11*
X649300Y207900D02*
X649300Y223900D01*
G54D11*
X646100Y207900D02*
X646100Y223900D01*
G54D11*
X649300Y215900D02*
X650900Y215900D01*
G54D11*
X646100Y215900D02*
X644500Y215900D01*
G54D11*
X546100Y203200D02*
X546100Y228600D01*
X571500Y228600D01*
X571500Y203200D01*
X546100Y203200D01*
G54D11*
X766900Y141700D02*
X763700Y141700D01*
X763700Y161700D01*
X766900Y161700D01*
X766900Y141700D01*
G54D11*
X770100Y141700D02*
X770100Y161700D01*
G54D11*
G75*
G01X727400Y152400D02*
G03X727400Y152400I40000J0D01*
G01*
G54D11*
X770400Y152400D02*
X777400Y152400D01*
G54D11*
X763400Y152400D02*
X757400Y152400D01*
G54D13*
X741400Y174600D02*
X752100Y174600D01*
G54D13*
X746700Y170200D02*
X746700Y179100D01*
G54D11*
X825500Y152400D02*
X822400Y152400D01*
G54D11*
G75*
G01X825500Y152400D02*
G03X825500Y152400I12700J0D01*
G01*
G54D11*
X864800Y141700D02*
X864800Y112300D01*
G54D11*
G75*
G01X923212Y141928D02*
G03X890246Y159089I-28512J-14528D01*
G01*
G54D11*
G75*
G01X890800Y95638D02*
G03X922688Y111886I3900J31762D01*
G01*
G54D11*
G75*
G01X894700Y114400D02*
G03X894700Y114400I0J12000D01*
G01*
G54D11*
X952500Y139700D02*
X977900Y139700D01*
X977900Y88900D01*
X952500Y88900D01*
X952500Y139700D01*
M02*
