%FSLAX34Y34*%
%MOMM*%
%LNCOPPER_TOP*%
G71*
G01*
%ADD10C, 0.00*%
%ADD11C, 0.80*%
%ADD12C, 1.80*%
%ADD13C, 0.30*%
%LPD*%
G54D10*
X-50000Y1050000D02*
X1050000Y1050000D01*
X1050000Y-50000D01*
X-50000Y-50000D01*
X-50000Y1050000D01*
G54D11*
X266700Y939800D02*
X254000Y952500D01*
X152400Y952500D01*
X139700Y939800D01*
X25400Y939800D01*
G54D11*
X304800Y939800D02*
X342900Y901700D01*
G54D11*
X495300Y914400D02*
X355600Y914400D01*
X342900Y901700D01*
G54D11*
X647700Y939800D02*
X673100Y939800D01*
X711200Y901700D01*
X711200Y863600D01*
X723900Y850900D01*
G54D11*
X76200Y939800D02*
X76200Y876300D01*
X63500Y863600D01*
G54D11*
X495300Y914400D02*
X508000Y914400D01*
X546100Y952500D01*
X635000Y952500D01*
X647700Y939800D01*
G54D11*
X647700Y800100D02*
X609600Y800100D01*
X609600Y812800D01*
X673100Y876300D01*
X711200Y876300D01*
G54D11*
X952500Y774700D02*
X952500Y812800D01*
X965200Y825500D01*
X977900Y825500D01*
G54D11*
X622685Y724135D02*
X622685Y724285D01*
X660400Y762000D01*
X939800Y762000D01*
X952500Y774700D01*
G54D11*
X266700Y469900D02*
X292100Y469900D01*
X304800Y482600D01*
X304800Y571500D01*
G54D11*
X25400Y546100D02*
X25400Y596900D01*
X50800Y622300D01*
X457200Y622300D01*
X520700Y685800D01*
X533551Y685800D01*
X571885Y724135D01*
G54D11*
X152400Y546100D02*
X177800Y546100D01*
G54D11*
X203200Y495300D02*
X203200Y508000D01*
X228600Y533400D01*
X228600Y596900D01*
X254000Y596900D01*
G54D11*
X165100Y596900D02*
X165100Y546100D01*
G54D11*
X279400Y787400D02*
X279400Y647700D01*
G54D11*
X190500Y647700D02*
X279400Y647700D01*
G54D11*
X279400Y596900D02*
X279400Y567705D01*
X260066Y548371D01*
G54D11*
X254000Y711200D02*
X254000Y787400D01*
G54D11*
X635000Y508000D02*
X660400Y533400D01*
X698500Y533400D01*
G54D11*
X774700Y622300D02*
X774700Y558800D01*
G54D11*
X616978Y927499D02*
X616978Y921778D01*
X571500Y876300D01*
X533400Y876300D01*
X533400Y762000D01*
X596900Y762000D01*
X596900Y673720D01*
X622685Y647935D01*
G54D11*
X355600Y673100D02*
X355600Y774700D01*
G54D11*
X63500Y863600D02*
X38100Y838200D01*
X38100Y812800D01*
X304800Y812800D01*
G54D11*
X209266Y710871D02*
X215571Y710871D01*
X228600Y723900D01*
X228600Y812800D01*
G54D11*
X653766Y407371D02*
X648671Y407371D01*
X635000Y393700D01*
X635000Y368300D01*
X787400Y368300D01*
X825500Y406400D01*
G54D11*
X507851Y393691D02*
X449309Y393691D01*
X442500Y400500D01*
X362400Y400500D01*
X342900Y381000D01*
G54D11*
X190500Y647700D02*
X101600Y647700D01*
G54D11*
X101600Y596900D02*
X101600Y419100D01*
X304800Y419100D01*
X342900Y381000D01*
G54D11*
X584051Y419090D02*
X533400Y419100D01*
X533400Y101600D01*
X508000Y101600D01*
G54D11*
X749300Y419100D02*
X800100Y419100D01*
X800100Y457200D01*
G54D11*
X165100Y393700D02*
X165100Y344800D01*
G54D11*
X101600Y419100D02*
X101600Y330200D01*
G54D11*
X457200Y101600D02*
X457200Y50800D01*
X647700Y50800D01*
X647700Y101600D01*
G54D11*
X101600Y330200D02*
X76200Y330200D01*
X76200Y266700D01*
X317500Y266700D01*
X317500Y50800D01*
X457200Y50800D01*
G54D11*
X584200Y127000D02*
X698500Y127000D01*
X698500Y177800D01*
X673100Y177800D01*
G54D11*
X558800Y215900D02*
X635000Y215900D01*
G54D11*
X723900Y101600D02*
X723900Y241300D01*
X635000Y241300D01*
X635000Y215900D01*
X25400Y977900D02*
G54D12*
D03*
X25400Y977900D02*
G54D12*
D03*
X25400Y977900D02*
G54D12*
D03*
X977900Y977900D02*
G54D12*
D03*
X977900Y25400D02*
G54D12*
D03*
X25400Y25400D02*
G54D12*
D03*
X25400Y977900D02*
G54D12*
D03*
%LNAUGENFREISTANZEN*%
%LPC*%
X25400Y977900D02*
G54D13*
D03*
X25400Y977900D02*
G54D13*
D03*
X25400Y977900D02*
G54D13*
D03*
X977900Y977900D02*
G54D13*
D03*
X977900Y25400D02*
G54D13*
D03*
X25400Y25400D02*
G54D13*
D03*
X25400Y977900D02*
G54D13*
D03*
M02*
