%FSLAX34Y34*%
%MOMM*%
%LNCOPPER_TOP*%
G71*
G01*
%ADD10C, 0.00*%
%ADD11C, 0.80*%
%ADD12C, 1.80*%
%ADD13C, 0.60*%
%LPD*%
G54D10*
X-50000Y1050000D02*
X950000Y1050000D01*
X950000Y350000D01*
X-50000Y350000D01*
X-50000Y1050000D01*
G54D11*
X596900Y990600D02*
X622300Y990600D01*
X660400Y952500D01*
X660400Y914400D01*
X673100Y901700D01*
G54D11*
X596900Y850900D02*
X558800Y850900D01*
X558800Y863600D01*
X622300Y927100D01*
X660400Y927100D01*
G54D11*
X901700Y825500D02*
X901700Y863600D01*
X914400Y876300D01*
X927100Y876300D01*
G54D11*
X571885Y774935D02*
X571885Y775085D01*
X609600Y825500D01*
X901700Y825500D01*
G54D11*
X566178Y978299D02*
X566178Y972578D01*
X520700Y927100D01*
X482600Y927100D01*
X482600Y812800D01*
X546100Y812800D01*
X546100Y724520D01*
X571885Y698735D01*
G54D11*
X602966Y458171D02*
X597871Y458171D01*
X584200Y444500D01*
X584200Y419100D01*
X736600Y419100D01*
X774700Y457200D01*
G54D11*
X457051Y444491D02*
X398509Y444491D01*
X391700Y451300D01*
X311600Y451300D01*
X292100Y431800D01*
G54D11*
X698500Y469900D02*
X749300Y469900D01*
X749300Y508000D01*
X-25400Y1028700D02*
G54D12*
D03*
X-25400Y1028700D02*
G54D12*
D03*
X-25400Y1028700D02*
G54D12*
D03*
X927100Y1028700D02*
G54D12*
D03*
X927100Y368300D02*
G54D12*
D03*
X-25400Y368300D02*
G54D12*
D03*
X-25400Y1028700D02*
G54D12*
D03*
G54D11*
X12700Y914400D02*
X-12700Y889000D01*
X-12700Y863600D01*
G54D11*
X203200Y838200D02*
X203200Y736600D01*
G54D11*
X203200Y736600D02*
X203200Y647700D01*
G54D11*
X76200Y673100D02*
X76200Y469900D01*
G54D11*
X76200Y469900D02*
X254000Y469900D01*
X292100Y431800D01*
G54D11*
X228600Y838200D02*
X228600Y673100D01*
X228600Y647700D01*
G54D11*
X-25400Y596900D02*
X-25400Y673100D01*
X12700Y711200D01*
X177800Y711200D01*
G54D11*
X254000Y711200D02*
X342900Y711200D01*
X355600Y723900D01*
X470051Y723900D01*
X521085Y774935D01*
%LNAUGENFREISTANZEN*%
%LPC*%
X-25400Y1028700D02*
G54D13*
D03*
X-25400Y1028700D02*
G54D13*
D03*
X-25400Y1028700D02*
G54D13*
D03*
X927100Y1028700D02*
G54D13*
D03*
X927100Y368300D02*
G54D13*
D03*
X-25400Y368300D02*
G54D13*
D03*
X-25400Y1028700D02*
G54D13*
D03*
M02*
