%FSLAX34Y34*%
%MOMM*%
%LNCOPPER_TOP*%
G71*
G01*
%ADD10C, 0.00*%
%ADD11C, 0.80*%
%ADD12C, 1.80*%
%ADD13C, 0.22*%
%LPD*%
G54D10*
X-50000Y1050000D02*
X950000Y1050000D01*
X950000Y350000D01*
X-50000Y350000D01*
X-50000Y1050000D01*
G54D11*
X596900Y990600D02*
X622300Y990600D01*
X660400Y952500D01*
X660400Y914400D01*
X673100Y901700D01*
G54D11*
X596900Y850900D02*
X558800Y850900D01*
X558800Y863600D01*
X622300Y927100D01*
X660400Y927100D01*
G54D11*
X901700Y825500D02*
X901700Y863600D01*
X914400Y876300D01*
X927100Y876300D01*
G54D11*
X571885Y774935D02*
X571885Y775085D01*
X609600Y825500D01*
X901700Y825500D01*
G54D11*
X566178Y978299D02*
X566178Y972578D01*
X520700Y927100D01*
X482600Y927100D01*
X482600Y812800D01*
X546100Y812800D01*
X546100Y724520D01*
X571885Y698735D01*
G54D11*
X602966Y458171D02*
X597871Y458171D01*
X584200Y444500D01*
X584200Y419100D01*
X736600Y419100D01*
X774700Y457200D01*
G54D11*
X457051Y444491D02*
X398509Y444491D01*
X391700Y451300D01*
X311600Y451300D01*
X292100Y431800D01*
G54D11*
X698500Y469900D02*
X749300Y469900D01*
X749300Y508000D01*
X-25400Y1028700D02*
G54D12*
D03*
X-25400Y1028700D02*
G54D12*
D03*
X-25400Y1028700D02*
G54D12*
D03*
X927100Y1028700D02*
G54D12*
D03*
X927100Y368300D02*
G54D12*
D03*
X-25400Y368300D02*
G54D12*
D03*
X-25400Y1028700D02*
G54D12*
D03*
G54D11*
X12700Y914400D02*
X-12700Y889000D01*
X-12700Y863600D01*
G54D11*
X203200Y838200D02*
X203200Y736600D01*
G54D11*
X203200Y736600D02*
X203200Y647700D01*
G54D11*
X76200Y673100D02*
X76200Y469900D01*
G54D11*
X76200Y469900D02*
X254000Y469900D01*
X292100Y431800D01*
G54D11*
X228600Y838200D02*
X228600Y673100D01*
X228600Y647700D01*
G54D11*
X-25400Y596900D02*
X-25400Y673100D01*
X12700Y711200D01*
X177800Y711200D01*
G54D11*
X254000Y711200D02*
X342900Y711200D01*
X355600Y723900D01*
X470051Y723900D01*
X521085Y774935D01*
G54D13*
X23367Y358933D02*
X22033Y356711D01*
X19367Y355600D01*
X16700Y355600D01*
X14033Y356711D01*
X12700Y358933D01*
X12700Y370044D01*
X14033Y372267D01*
X16700Y373378D01*
X19367Y373378D01*
X22033Y372267D01*
X23367Y370044D01*
G54D13*
X28256Y373378D02*
X28256Y355600D01*
X34923Y366711D01*
X41589Y355600D01*
X41589Y373378D01*
G54D13*
X46478Y370044D02*
X47811Y372267D01*
X50478Y373378D01*
X53145Y373378D01*
X55811Y372267D01*
X57145Y370044D01*
X57145Y367822D01*
X55811Y365600D01*
X53145Y364489D01*
X55811Y363378D01*
X57145Y361156D01*
X57145Y358933D01*
X55811Y356711D01*
X53145Y355600D01*
X50478Y355600D01*
X47811Y356711D01*
X46478Y358933D01*
G54D13*
X62034Y363378D02*
X72701Y363378D01*
G54D13*
X77590Y373378D02*
X77590Y355600D01*
X86923Y355600D01*
G54D13*
X91812Y373378D02*
X102479Y373378D01*
X91812Y355600D01*
X102479Y355600D01*
G54D13*
X107368Y366711D02*
X114035Y373378D01*
X114035Y355600D01*
G54D13*
X118924Y355600D02*
X118924Y373378D01*
X125591Y373378D01*
X128257Y372267D01*
X129591Y370044D01*
X129591Y358933D01*
X128257Y356711D01*
X125591Y355600D01*
X118924Y355600D01*
G54D13*
X134480Y355600D02*
X134480Y373378D01*
X141147Y373378D01*
X143813Y372267D01*
X145147Y370044D01*
X145147Y367822D01*
X143813Y365600D01*
X141147Y364489D01*
X134480Y364489D01*
G54D13*
X150036Y355600D02*
X150036Y373378D01*
X160703Y355600D01*
X160703Y373378D01*
G54D13*
X165592Y363378D02*
X176259Y363378D01*
G54D13*
X191815Y355600D02*
X181148Y355600D01*
X181148Y356711D01*
X182481Y358933D01*
X190481Y365600D01*
X191815Y367822D01*
X191815Y370044D01*
X190481Y372267D01*
X187815Y373378D01*
X185148Y373378D01*
X182481Y372267D01*
X181148Y370044D01*
G54D13*
X207371Y370044D02*
X207371Y358933D01*
X206037Y356711D01*
X203371Y355600D01*
X200704Y355600D01*
X198037Y356711D01*
X196704Y358933D01*
X196704Y370044D01*
X198037Y372267D01*
X200704Y373378D01*
X203371Y373378D01*
X206037Y372267D01*
X207371Y370044D01*
G54D13*
X212260Y366711D02*
X218927Y373378D01*
X218927Y355600D01*
G54D13*
X230483Y364489D02*
X227816Y364489D01*
X225149Y365600D01*
X223816Y367822D01*
X223816Y370044D01*
X225149Y372267D01*
X227816Y373378D01*
X230483Y373378D01*
X233149Y372267D01*
X234483Y370044D01*
X234483Y367822D01*
X233149Y365600D01*
X230483Y364489D01*
X233149Y363378D01*
X234483Y361156D01*
X234483Y358933D01*
X233149Y356711D01*
X230483Y355600D01*
X227816Y355600D01*
X225149Y356711D01*
X223816Y358933D01*
X223816Y361156D01*
X225149Y363378D01*
X227816Y364489D01*
M02*
