%FSLAX34Y34*%
%MOMM*%
%LNSOLDERMASK_BOTTOM*%
G71*
G01*
%ADD10C, 0.00*%
%ADD11C, 2.12*%
%ADD12C, 2.40*%
%ADD13C, 1.88*%
%ADD14C, 2.60*%
%ADD15C, 1.88*%
%ADD16C, 3.60*%
%ADD17C, 2.20*%
%ADD18C, 2.80*%
%ADD19C, 3.60*%
%ADD20C, 3.60*%
%LPD*%
G54D10*
X-50000Y1050000D02*
X1050000Y1050000D01*
X1050000Y-50000D01*
X-50000Y-50000D01*
X-50000Y1050000D01*
G36*
X36000Y950400D02*
X36000Y929200D01*
X14800Y929200D01*
X14800Y950400D01*
X36000Y950400D01*
G37*
X25400Y914400D02*
G54D11*
D03*
X127000Y914400D02*
G54D12*
D03*
X152400Y914400D02*
G54D12*
D03*
X101600Y914400D02*
G54D12*
D03*
X50800Y914400D02*
G54D12*
D03*
X196566Y901371D02*
G54D13*
D03*
X183866Y915371D02*
G54D13*
D03*
X196566Y929371D02*
G54D13*
D03*
G36*
X230700Y950400D02*
X251900Y950400D01*
X251900Y929200D01*
X230700Y929200D01*
X230700Y950400D01*
G37*
X266700Y939800D02*
G54D11*
D03*
X228600Y901700D02*
G54D14*
D03*
X279400Y901700D02*
G54D14*
D03*
X304800Y939800D02*
G54D12*
D03*
X304800Y914400D02*
G54D12*
D03*
X361666Y825171D02*
G54D13*
D03*
X348966Y839171D02*
G54D13*
D03*
X361666Y853171D02*
G54D13*
D03*
G36*
X36000Y874200D02*
X36000Y853000D01*
X14800Y853000D01*
X14800Y874200D01*
X36000Y874200D01*
G37*
X25400Y838200D02*
G54D11*
D03*
X63500Y863600D02*
G54D12*
D03*
X63500Y838200D02*
G54D12*
D03*
X88900Y863600D02*
G54D12*
D03*
X88900Y838200D02*
G54D12*
D03*
X114300Y838200D02*
G54D12*
D03*
X139700Y838200D02*
G54D12*
D03*
X165100Y863600D02*
G54D12*
D03*
X165100Y838200D02*
G54D12*
D03*
X190500Y838200D02*
G54D12*
D03*
X215900Y838200D02*
G54D12*
D03*
X241300Y863600D02*
G54D12*
D03*
X241300Y838200D02*
G54D12*
D03*
X317500Y863600D02*
G54D12*
D03*
X317500Y838200D02*
G54D12*
D03*
X342900Y901700D02*
G54D12*
D03*
X342900Y876300D02*
G54D12*
D03*
X393700Y812800D02*
G54D12*
D03*
X393700Y838200D02*
G54D12*
D03*
X437866Y837871D02*
G54D13*
D03*
X425166Y851871D02*
G54D13*
D03*
X437866Y865871D02*
G54D13*
D03*
X393700Y889000D02*
G54D12*
D03*
X393700Y863600D02*
G54D12*
D03*
X304800Y812800D02*
G54D12*
D03*
X330200Y812800D02*
G54D12*
D03*
X444500Y939800D02*
G54D14*
D03*
X444500Y889000D02*
G54D14*
D03*
X419100Y812800D02*
G54D12*
D03*
X444500Y812800D02*
G54D12*
D03*
X469900Y889000D02*
G54D12*
D03*
X469900Y863600D02*
G54D12*
D03*
X469900Y838200D02*
G54D12*
D03*
X469900Y812800D02*
G54D12*
D03*
X495300Y889000D02*
G54D12*
D03*
X495300Y863600D02*
G54D12*
D03*
X558800Y812800D02*
G54D13*
D03*
X584200Y838200D02*
G54D13*
D03*
X558800Y863600D02*
G54D13*
D03*
X495300Y825500D02*
G54D12*
D03*
X495300Y800100D02*
G54D12*
D03*
G36*
X536700Y911100D02*
X555500Y911100D01*
X555500Y892300D01*
X536700Y892300D01*
X536700Y911100D01*
G37*
X546100Y927100D02*
G54D15*
D03*
X571500Y901700D02*
G54D15*
D03*
X571500Y927100D02*
G54D15*
D03*
X495300Y939800D02*
G54D12*
D03*
X495300Y914400D02*
G54D12*
D03*
X635000Y889000D02*
G54D12*
D03*
X609600Y889000D02*
G54D12*
D03*
X673100Y850900D02*
G54D12*
D03*
X622300Y850900D02*
G54D12*
D03*
X647700Y825500D02*
G54D12*
D03*
X647700Y800100D02*
G54D12*
D03*
X673100Y825500D02*
G54D12*
D03*
X673100Y800100D02*
G54D12*
D03*
X698500Y800100D02*
G54D16*
D03*
X749300Y800100D02*
G54D16*
D03*
X723900Y850900D02*
G54D16*
D03*
X711200Y901700D02*
G54D12*
D03*
X711200Y941700D02*
G54D12*
D03*
X616978Y927499D02*
G54D12*
D03*
X591578Y927499D02*
G54D12*
D03*
G36*
X658300Y950400D02*
X658300Y929200D01*
X637100Y929200D01*
X637100Y950400D01*
X658300Y950400D01*
G37*
X647700Y914400D02*
G54D11*
D03*
X762000Y939800D02*
G54D12*
D03*
X762000Y914400D02*
G54D12*
D03*
X850900Y825500D02*
G54D13*
D03*
X876300Y850900D02*
G54D13*
D03*
X850900Y876300D02*
G54D13*
D03*
X774700Y850900D02*
G54D14*
D03*
X774700Y800100D02*
G54D14*
D03*
G36*
X810700Y950400D02*
X810700Y929200D01*
X789500Y929200D01*
X789500Y950400D01*
X810700Y950400D01*
G37*
X800100Y914400D02*
G54D11*
D03*
G36*
X892300Y923800D02*
X911100Y923800D01*
X911100Y905000D01*
X892300Y905000D01*
X892300Y923800D01*
G37*
X901700Y939800D02*
G54D15*
D03*
X927100Y914400D02*
G54D15*
D03*
X927100Y939800D02*
G54D15*
D03*
X977900Y863600D02*
G54D12*
D03*
X977900Y889000D02*
G54D12*
D03*
G36*
X988500Y836100D02*
X988500Y814900D01*
X967300Y814900D01*
X967300Y836100D01*
X988500Y836100D01*
G37*
X977900Y800100D02*
G54D11*
D03*
X927100Y825500D02*
G54D12*
D03*
X927100Y800100D02*
G54D12*
D03*
X76200Y546100D02*
G54D17*
D03*
X76200Y520700D02*
G54D17*
D03*
X76200Y495300D02*
G54D17*
D03*
X76200Y469900D02*
G54D17*
D03*
X152400Y546100D02*
G54D17*
D03*
X152400Y520700D02*
G54D17*
D03*
X152400Y495300D02*
G54D17*
D03*
X152400Y469900D02*
G54D17*
D03*
X698500Y558800D02*
G54D17*
D03*
X698500Y533400D02*
G54D17*
D03*
X698500Y508000D02*
G54D17*
D03*
X698500Y482600D02*
G54D17*
D03*
X774700Y558800D02*
G54D17*
D03*
X774700Y533400D02*
G54D17*
D03*
X774700Y508000D02*
G54D17*
D03*
X774700Y482600D02*
G54D17*
D03*
X342050Y532550D02*
G54D14*
D03*
X342050Y484150D02*
G54D14*
D03*
X444885Y647935D02*
G54D18*
D03*
X444885Y724135D02*
G54D18*
D03*
X521085Y647935D02*
G54D18*
D03*
X571885Y647935D02*
G54D18*
D03*
X622685Y647935D02*
G54D18*
D03*
X521085Y724135D02*
G54D18*
D03*
X571885Y724135D02*
G54D18*
D03*
X622685Y724135D02*
G54D18*
D03*
G36*
X988500Y734500D02*
X988500Y713300D01*
X967300Y713300D01*
X967300Y734500D01*
X988500Y734500D01*
G37*
X977900Y698500D02*
G54D11*
D03*
X939800Y698500D02*
G54D12*
D03*
X939800Y723900D02*
G54D12*
D03*
X901700Y723900D02*
G54D14*
D03*
X850900Y723900D02*
G54D14*
D03*
X812800Y698500D02*
G54D12*
D03*
X812800Y723900D02*
G54D12*
D03*
X774700Y723900D02*
G54D14*
D03*
X723900Y723900D02*
G54D14*
D03*
X685800Y698500D02*
G54D12*
D03*
X685800Y723900D02*
G54D12*
D03*
G36*
X36000Y734500D02*
X36000Y713300D01*
X14800Y713300D01*
X14800Y734500D01*
X36000Y734500D01*
G37*
X25400Y698500D02*
G54D11*
D03*
X114300Y723900D02*
G54D12*
D03*
X63500Y723900D02*
G54D12*
D03*
X139700Y723900D02*
G54D12*
D03*
X165100Y723900D02*
G54D12*
D03*
X209266Y710871D02*
G54D13*
D03*
X196566Y724871D02*
G54D13*
D03*
X209266Y738871D02*
G54D13*
D03*
X419100Y647700D02*
G54D12*
D03*
X419100Y698500D02*
G54D12*
D03*
G36*
X671000Y683700D02*
X671000Y662500D01*
X649800Y662500D01*
X649800Y683700D01*
X671000Y683700D01*
G37*
X660400Y647700D02*
G54D11*
D03*
X405550Y532550D02*
G54D14*
D03*
X405550Y484150D02*
G54D14*
D03*
X469050Y532550D02*
G54D14*
D03*
X469050Y484150D02*
G54D14*
D03*
X532550Y532550D02*
G54D14*
D03*
X532550Y484150D02*
G54D14*
D03*
X381000Y571500D02*
G54D12*
D03*
X381000Y596900D02*
G54D12*
D03*
X444500Y571500D02*
G54D12*
D03*
X444500Y596900D02*
G54D12*
D03*
X508000Y571500D02*
G54D12*
D03*
X508000Y596900D02*
G54D12*
D03*
X260066Y520371D02*
G54D13*
D03*
X247366Y534371D02*
G54D13*
D03*
X260066Y548371D02*
G54D13*
D03*
X266700Y495300D02*
G54D12*
D03*
X266700Y469900D02*
G54D12*
D03*
X571500Y520700D02*
G54D12*
D03*
X571500Y546100D02*
G54D12*
D03*
X596900Y482600D02*
G54D12*
D03*
X571500Y482600D02*
G54D12*
D03*
X50800Y546100D02*
G54D12*
D03*
X25400Y546100D02*
G54D12*
D03*
X50800Y520700D02*
G54D12*
D03*
X25400Y520700D02*
G54D12*
D03*
X203200Y495300D02*
G54D12*
D03*
X177800Y495300D02*
G54D12*
D03*
X203200Y546100D02*
G54D12*
D03*
X177800Y546100D02*
G54D12*
D03*
X635000Y508000D02*
G54D12*
D03*
X635000Y482600D02*
G54D12*
D03*
X635000Y598800D02*
G54D12*
D03*
X635000Y558800D02*
G54D12*
D03*
G36*
X294200Y582100D02*
X315400Y582100D01*
X315400Y560900D01*
X294200Y560900D01*
X294200Y582100D01*
G37*
G36*
X243400Y798000D02*
X264600Y798000D01*
X264600Y776800D01*
X243400Y776800D01*
X243400Y798000D01*
G37*
G36*
X243400Y607500D02*
X264600Y607500D01*
X264600Y586300D01*
X243400Y586300D01*
X243400Y607500D01*
G37*
G36*
X243400Y721800D02*
X264600Y721800D01*
X264600Y700600D01*
X243400Y700600D01*
X243400Y721800D01*
G37*
X165100Y596900D02*
G54D12*
D03*
X190500Y596900D02*
G54D12*
D03*
G36*
X268800Y874200D02*
X290000Y874200D01*
X290000Y853000D01*
X268800Y853000D01*
X268800Y874200D01*
G37*
G36*
X268800Y798000D02*
X290000Y798000D01*
X290000Y776800D01*
X268800Y776800D01*
X268800Y798000D01*
G37*
G36*
X268800Y658300D02*
X290000Y658300D01*
X290000Y637100D01*
X268800Y637100D01*
X268800Y658300D01*
G37*
G36*
X179900Y658300D02*
X201100Y658300D01*
X201100Y637100D01*
X179900Y637100D01*
X179900Y658300D01*
G37*
G36*
X268800Y607500D02*
X290000Y607500D01*
X290000Y586300D01*
X268800Y586300D01*
X268800Y607500D01*
G37*
X266700Y838200D02*
G54D12*
D03*
X317500Y838200D02*
G54D12*
D03*
X800100Y508000D02*
G54D12*
D03*
X800100Y533400D02*
G54D12*
D03*
X825500Y558800D02*
G54D12*
D03*
X800100Y558800D02*
G54D12*
D03*
X850900Y533400D02*
G54D12*
D03*
X825500Y533400D02*
G54D12*
D03*
X850900Y508000D02*
G54D12*
D03*
X825500Y508000D02*
G54D12*
D03*
X901700Y508000D02*
G54D14*
D03*
X950100Y508000D02*
G54D14*
D03*
X889000Y596900D02*
G54D19*
D03*
X939000Y646900D02*
G54D19*
D03*
X939000Y546900D02*
G54D19*
D03*
X850900Y596900D02*
G54D12*
D03*
X850900Y622300D02*
G54D12*
D03*
G36*
X687900Y632900D02*
X709100Y632900D01*
X709100Y611700D01*
X687900Y611700D01*
X687900Y632900D01*
G37*
X749300Y622300D02*
G54D12*
D03*
X774700Y622300D02*
G54D12*
D03*
G36*
X345000Y658300D02*
X366200Y658300D01*
X366200Y637100D01*
X345000Y637100D01*
X345000Y658300D01*
G37*
X381000Y647700D02*
G54D11*
D03*
G36*
X345000Y683700D02*
X366200Y683700D01*
X366200Y662500D01*
X345000Y662500D01*
X345000Y683700D01*
G37*
G36*
X345000Y785300D02*
X366200Y785300D01*
X366200Y764100D01*
X345000Y764100D01*
X345000Y785300D01*
G37*
G36*
X560900Y582100D02*
X582100Y582100D01*
X582100Y560900D01*
X560900Y560900D01*
X560900Y582100D01*
G37*
X749300Y419100D02*
G54D12*
D03*
X723900Y419100D02*
G54D12*
D03*
X749300Y393700D02*
G54D12*
D03*
X723900Y393700D02*
G54D12*
D03*
X698500Y419100D02*
G54D12*
D03*
X698500Y393700D02*
G54D12*
D03*
X666466Y393371D02*
G54D13*
D03*
X653766Y407371D02*
G54D13*
D03*
X666466Y421371D02*
G54D13*
D03*
G36*
X975800Y442400D02*
X975800Y421200D01*
X954600Y421200D01*
X954600Y442400D01*
X975800Y442400D01*
G37*
X965200Y406400D02*
G54D11*
D03*
X889000Y406400D02*
G54D12*
D03*
X939800Y406400D02*
G54D12*
D03*
X863600Y406400D02*
G54D12*
D03*
X863600Y431800D02*
G54D12*
D03*
X825500Y431800D02*
G54D12*
D03*
X825500Y406400D02*
G54D12*
D03*
X584051Y342890D02*
G54D17*
D03*
X584051Y368290D02*
G54D17*
D03*
X584051Y393691D02*
G54D17*
D03*
X584051Y419090D02*
G54D17*
D03*
X507851Y342890D02*
G54D17*
D03*
X507851Y368290D02*
G54D17*
D03*
X507851Y393691D02*
G54D17*
D03*
X507851Y419090D02*
G54D17*
D03*
X482600Y304800D02*
G54D12*
D03*
X482600Y330200D02*
G54D12*
D03*
X431800Y421000D02*
G54D12*
D03*
X431800Y381000D02*
G54D12*
D03*
X482600Y419100D02*
G54D14*
D03*
X482600Y342900D02*
G54D14*
D03*
X342900Y421000D02*
G54D12*
D03*
X342900Y381000D02*
G54D12*
D03*
G36*
X91000Y658300D02*
X112200Y658300D01*
X112200Y637100D01*
X91000Y637100D01*
X91000Y658300D01*
G37*
G36*
X91000Y429700D02*
X112200Y429700D01*
X112200Y408500D01*
X91000Y408500D01*
X91000Y429700D01*
G37*
G36*
X91000Y607500D02*
X112200Y607500D01*
X112200Y586300D01*
X91000Y586300D01*
X91000Y607500D01*
G37*
X355600Y342900D02*
G54D12*
D03*
X395600Y342900D02*
G54D12*
D03*
X266700Y342900D02*
G54D16*
D03*
X266700Y393700D02*
G54D16*
D03*
X215900Y368300D02*
G54D16*
D03*
G36*
X36000Y404300D02*
X36000Y383100D01*
X14800Y383100D01*
X14800Y404300D01*
X36000Y404300D01*
G37*
X25400Y368300D02*
G54D11*
D03*
X508000Y177800D02*
G54D17*
D03*
X508000Y152400D02*
G54D17*
D03*
X508000Y127000D02*
G54D17*
D03*
X508000Y101600D02*
G54D17*
D03*
X584200Y177800D02*
G54D17*
D03*
X584200Y152400D02*
G54D17*
D03*
X584200Y127000D02*
G54D17*
D03*
X584200Y101600D02*
G54D17*
D03*
X635000Y344800D02*
G54D12*
D03*
X635000Y304800D02*
G54D12*
D03*
X317500Y342900D02*
G54D12*
D03*
X292100Y342900D02*
G54D12*
D03*
G36*
X36000Y163000D02*
X36000Y141800D01*
X14800Y141800D01*
X14800Y163000D01*
X36000Y163000D01*
G37*
X25400Y127000D02*
G54D11*
D03*
X88900Y152400D02*
G54D12*
D03*
X63500Y152400D02*
G54D12*
D03*
X88900Y127000D02*
G54D12*
D03*
X63500Y127000D02*
G54D12*
D03*
G36*
X810700Y493200D02*
X810700Y472000D01*
X789500Y472000D01*
X789500Y493200D01*
X810700Y493200D01*
G37*
X800100Y457200D02*
G54D11*
D03*
X774700Y457200D02*
G54D12*
D03*
X749300Y457200D02*
G54D12*
D03*
X393700Y177800D02*
G54D12*
D03*
X368300Y177800D02*
G54D12*
D03*
X393700Y215900D02*
G54D12*
D03*
X368300Y215900D02*
G54D12*
D03*
X355600Y254000D02*
G54D12*
D03*
X406400Y254000D02*
G54D12*
D03*
X406400Y279400D02*
G54D12*
D03*
X355600Y279400D02*
G54D12*
D03*
X457200Y215900D02*
G54D12*
D03*
X431800Y215900D02*
G54D12*
D03*
G36*
X154500Y404300D02*
X175700Y404300D01*
X175700Y383100D01*
X154500Y383100D01*
X154500Y404300D01*
G37*
X165100Y344800D02*
G54D12*
D03*
X165100Y304800D02*
G54D12*
D03*
X101600Y330200D02*
G54D12*
D03*
X101600Y304800D02*
G54D12*
D03*
X431800Y101600D02*
G54D12*
D03*
X431800Y127000D02*
G54D12*
D03*
X457200Y127000D02*
G54D12*
D03*
X457200Y101600D02*
G54D12*
D03*
X647700Y101600D02*
G54D12*
D03*
X622300Y101600D02*
G54D12*
D03*
X723900Y101600D02*
G54D12*
D03*
X698500Y101600D02*
G54D12*
D03*
X584200Y76200D02*
G54D12*
D03*
X558800Y76200D02*
G54D12*
D03*
X635000Y152400D02*
G54D12*
D03*
X635000Y177800D02*
G54D12*
D03*
X673100Y177800D02*
G54D12*
D03*
X673100Y152400D02*
G54D12*
D03*
X660400Y215900D02*
G54D12*
D03*
X635000Y215900D02*
G54D12*
D03*
G36*
X548200Y226500D02*
X569400Y226500D01*
X569400Y205300D01*
X548200Y205300D01*
X548200Y226500D01*
G37*
X787400Y152400D02*
G54D12*
D03*
X747400Y152400D02*
G54D12*
D03*
X838200Y152400D02*
G54D12*
D03*
X812800Y152400D02*
G54D12*
D03*
X876300Y152400D02*
G54D16*
D03*
X876300Y101600D02*
G54D16*
D03*
X927100Y127000D02*
G54D16*
D03*
G36*
X975800Y137600D02*
X975800Y116400D01*
X954600Y116400D01*
X954600Y137600D01*
X975800Y137600D01*
G37*
X965200Y101600D02*
G54D11*
D03*
X25400Y977900D02*
G54D12*
D03*
X977900Y977900D02*
G54D12*
D03*
X977900Y25400D02*
G54D12*
D03*
X25400Y25400D02*
G54D12*
D03*
X25400Y977900D02*
G54D12*
D03*
X25400Y977900D02*
G54D12*
D03*
X25400Y977900D02*
G54D12*
D03*
X977900Y977900D02*
G54D12*
D03*
X977900Y25400D02*
G54D12*
D03*
X25400Y25400D02*
G54D12*
D03*
X25400Y977900D02*
G54D12*
D03*
X25400Y977900D02*
G54D20*
D03*
X977900Y977900D02*
G54D20*
D03*
X977900Y25400D02*
G54D20*
D03*
X25400Y25400D02*
G54D20*
D03*
X850900Y749300D02*
G54D12*
D03*
X901700Y749300D02*
G54D12*
D03*
M02*
