; Drill file
; Format: 2.4 (00.0000)
M48
INCH
T01C0.0205
T02C0.0236
T03C0.0283
T04C0.0394
T05C0.0433
T06C0.0551
%
G05
G90
T01
X010240Y020490
X009740Y021040
X010240Y021590
X008240Y027990
X007740Y028540
X008240Y029090
X007740Y035490
X007240Y036040
X007740Y036590
X013740Y033040
X014240Y033590
X014240Y032490
X016740Y033540
X017240Y034090
X017240Y032990
X022000Y032000
X023000Y033000
X022000Y034000
X033500Y034500
X034500Y033500
X033500Y032500
X026240Y016590
X025740Y016040
X026240Y015490
T02
X002500Y005000
X002500Y006000
X003500Y006000
X003500Y005000
X004000Y012000
X004000Y013000
X006500Y013570
X006500Y012000
X011500Y013500
X012500Y013500
X014000Y013500
X015570Y013500
X017000Y015000
X017000Y016570
X019000Y016500
X019990Y016500
X019990Y015500
X019990Y014500
X019990Y013500
X019000Y013500
X019000Y013000
X019000Y012000
X016000Y011000
X016000Y010000
X015500Y008500
X014500Y008500
X014500Y007000
X015500Y007000
X017000Y008500
X018000Y008500
X020000Y007000
X020000Y006000
X020000Y005000
X020000Y004000
X018000Y004000
X017000Y004000
X017000Y005000
X018000Y005000
X022000Y003000
X023000Y003000
X023000Y004000
X023000Y005000
X023000Y006000
X023000Y007000
X025000Y007000
X025000Y006000
X026500Y006000
X026500Y007000
X026000Y008500
X025000Y008500
X025000Y012000
X025000Y013570
X022990Y013500
X022990Y014500
X022990Y015500
X022990Y016500
X022500Y019000
X023500Y019000
X025000Y019000
X025000Y020000
X025000Y022000
X025000Y023570
X027500Y022000
X027500Y021000
X027500Y020000
X027500Y019000
X029500Y018000
X030500Y018000
X030500Y019000
X030500Y020000
X030500Y021000
X030500Y022000
X031500Y022000
X031500Y021000
X031500Y020000
X032500Y020000
X032500Y021000
X032500Y022000
X033500Y021000
X033500Y020000
X035500Y020000
X037410Y020000
X037000Y016000
X035000Y016000
X034000Y016000
X034000Y017000
X032500Y017000
X032500Y016000
X029500Y016500
X028500Y016500
X028500Y015500
X029500Y015500
X027500Y015500
X027500Y016500
X022500Y020500
X022500Y021500
X020970Y020970
X020000Y022500
X020000Y023500
X017500Y023500
X017500Y022500
X018470Y020970
X018470Y019060
X015970Y019060
X015970Y020970
X015000Y022500
X015000Y023500
X016500Y025500
X016500Y027500
X016500Y032000
X015500Y032000
X015500Y033000
X015500Y034000
X015500Y035000
X017500Y035000
X018500Y035000
X018500Y034000
X019500Y034000
X019500Y035000
X019500Y036000
X019500Y037000
X017500Y037000
X018500Y033000
X018500Y032000
X017500Y032000
X019500Y032500
X019500Y031500
X024500Y033500
X025500Y032500
X025500Y031500
X026500Y031500
X026500Y032500
X026500Y033500
X025000Y035000
X024000Y035000
X024290Y036520
X023290Y036520
X028000Y037070
X028000Y035500
X030000Y036000
X030000Y037000
X030500Y033500
X030500Y031500
X030500Y028500
X032000Y028500
X032000Y027500
X033500Y028500
X033500Y029500
X035500Y029500
X035500Y028500
X037000Y028500
X037000Y027500
X036500Y031500
X036500Y032500
X038500Y034000
X038500Y035000
X033500Y024500
X033500Y023500
X030500Y024500
X029500Y024500
X027000Y027500
X027000Y028500
X028500Y028500
X020970Y019060
X013470Y019060
X013470Y020970
X010500Y019500
X010500Y018500
X008000Y019500
X007000Y019500
X006000Y019500
X006000Y020500
X006000Y021500
X007000Y021500
X008000Y021500
X007500Y023500
X006500Y023500
X003000Y021500
X003000Y020500
X003000Y019500
X003000Y018500
X002000Y020500
X002000Y021500
X001000Y021500
X001000Y020500
X006000Y018500
X013500Y016570
X013500Y015000
X014000Y011000
X014000Y010000
X024500Y004000
X025500Y004000
X027500Y004000
X028500Y004000
X029430Y006000
X031000Y006000
X032000Y006000
X033000Y006000
X013000Y032000
X012000Y032000
X012500Y033000
X012500Y034000
X013500Y034500
X013500Y035500
X012000Y036000
X012000Y037000
X011000Y035500
X009000Y035500
X009500Y034000
X009500Y033000
X008500Y033000
X007500Y033000
X006500Y033000
X006500Y034000
X005500Y033000
X004500Y033000
X003500Y033000
X003500Y034000
X002500Y034000
X002500Y033000
X002000Y036000
X004000Y036000
X005000Y036000
X006000Y036000
X010500Y033000
X006500Y028500
X005500Y028500
X004500Y028500
X002500Y028500
T03
X001000Y005000
X001000Y006000
X001000Y014500
X001000Y015500
X004000Y016500
X006500Y015500
X004000Y023500
X004000Y025500
X007500Y025500
X010000Y023500
X011000Y023500
X012000Y022500
X011000Y025500
X010000Y028000
X010000Y031000
X011000Y031000
X011000Y034000
X010500Y037000
X009500Y037000
X014000Y030500
X014000Y026500
X014000Y025500
X015000Y025500
X022500Y022500
X026000Y025500
X026000Y026500
X027500Y024500
X031500Y019000
X031500Y018000
X038000Y017000
X038000Y016000
X038000Y005000
X038000Y004000
X022000Y008500
X038500Y027500
X038500Y028500
X038500Y031500
X038500Y032500
X036500Y036000
X035500Y036000
X035500Y037000
X036500Y037000
X031500Y037000
X031500Y036000
X025500Y036000
X025500Y037000
X022500Y036500
X021500Y036500
X021500Y035500
X022500Y035500
X001000Y036000
X001000Y037000
X001000Y034000
X001000Y033000
X001000Y028500
X001000Y027500
T04
X008500Y014500
X010500Y015500
X010500Y013500
X017520Y025510
X017520Y028510
X020520Y028510
X022520Y028510
X024520Y028510
X024520Y025510
X022520Y025510
X020520Y025510
X027500Y031500
X029500Y031500
X028500Y033500
X034500Y006000
X034500Y004000
X036500Y005000
T05
X035000Y023500
X036970Y025470
X036970Y021530
T06
X001000Y001000
X001000Y038500
X038500Y038500
X038500Y001000
M30
